<svg xmlns="http://www.w3.org/2000/svg" xmlns:xlink="http://www.w3.org/1999/xlink" width="500" zoomAndPan="magnify" viewBox="0 0 375 374.999991" height="500" preserveAspectRatio="xMidYMid meet" version="1.0"><defs><g/></defs><g fill="#ffde59" fill-opacity="1"><g transform="translate(24.330361, 206.371198)"><g><path d="M 4.496094 -21.507812 C 4.578125 -21.753906 4.621094 -21.996094 4.578125 -22.039062 C 4.496094 -22.242188 4.335938 -21.835938 4.335938 -21.464844 C 4.335938 -21.140625 4.335938 -21.140625 4.496094 -21.507812 Z M 31.035156 -29.5625 C 30.992188 -29.5625 30.871094 -29.355469 30.707031 -29.152344 L 30.503906 -28.824219 L 30.789062 -29.03125 C 31.074219 -29.234375 31.238281 -29.5625 31.035156 -29.5625 Z M 31.851562 -30.296875 C 31.851562 -30.09375 32.097656 -30.296875 32.546875 -30.828125 C 32.832031 -31.195312 33.039062 -31.484375 32.996094 -31.523438 C 32.914062 -31.605469 31.851562 -30.460938 31.851562 -30.296875 Z M 27.761719 -28.210938 C 28.171875 -28.703125 27.96875 -28.742188 27.515625 -28.253906 C 27.355469 -28.050781 27.230469 -27.886719 27.230469 -27.84375 C 27.230469 -27.679688 27.4375 -27.84375 27.761719 -28.210938 Z M 7.277344 -21.507812 C 7.238281 -21.464844 7.15625 -21.21875 7.15625 -20.976562 C 7.113281 -20.648438 7.113281 -20.566406 7.195312 -20.730469 C 7.320312 -20.933594 7.359375 -21.628906 7.277344 -21.507812 Z M 19.054688 -19.21875 C 19.011719 -19.21875 18.890625 -19.09375 18.765625 -18.929688 C 18.644531 -18.808594 18.480469 -18.6875 18.441406 -18.6875 C 18.398438 -18.6875 18.113281 -18.480469 17.828125 -18.277344 C 17.582031 -18.074219 17.089844 -17.746094 16.765625 -17.539062 C 16.4375 -17.335938 16.191406 -17.089844 16.191406 -17.050781 C 16.191406 -16.96875 16.394531 -17.007812 16.601562 -17.171875 C 16.804688 -17.335938 17.132812 -17.5 17.296875 -17.582031 C 17.5 -17.703125 17.621094 -17.785156 17.621094 -17.867188 C 17.621094 -17.949219 17.703125 -17.992188 17.746094 -17.992188 C 17.828125 -17.992188 18.074219 -18.152344 18.277344 -18.316406 C 18.523438 -18.523438 18.726562 -18.6875 18.808594 -18.6875 C 18.890625 -18.6875 18.972656 -18.808594 19.054688 -18.929688 C 19.136719 -19.09375 19.136719 -19.21875 19.054688 -19.21875 Z M 11.203125 -13.453125 L 10.957031 -13.207031 L 11.242188 -13.289062 C 11.570312 -13.410156 11.652344 -13.492188 11.570312 -13.574219 C 11.53125 -13.617188 11.367188 -13.574219 11.203125 -13.453125 Z M 41.335938 -6.707031 C 42.15625 -6.992188 42.644531 -7.238281 42.277344 -7.238281 C 42.03125 -7.238281 40.273438 -6.625 40.191406 -6.5 C 40.027344 -6.378906 40.398438 -6.417969 41.335938 -6.707031 Z M 2.535156 -6.867188 C 2.617188 -6.992188 3.066406 -8.789062 3.027344 -8.832031 C 2.984375 -8.871094 2.453125 -7.113281 2.453125 -6.910156 C 2.453125 -6.828125 2.496094 -6.828125 2.535156 -6.867188 Z M 0.246094 0.121094 C 0.121094 0.613281 0.121094 0.980469 0.164062 1.429688 C 0.246094 1.960938 0.328125 2.085938 0.574219 2.085938 C 0.734375 2.085938 0.898438 2.207031 0.980469 2.371094 C 1.105469 2.738281 1.144531 2.738281 1.800781 2.332031 C 2.371094 1.960938 2.738281 1.390625 2.945312 0.492188 C 3.027344 0.164062 3.148438 -0.203125 3.230469 -0.328125 C 3.3125 -0.410156 3.433594 -0.816406 3.515625 -1.1875 C 4.128906 -4.785156 4.414062 -6.132812 4.785156 -7.5625 C 4.988281 -8.339844 4.988281 -8.339844 6.460938 -6.910156 C 8.21875 -5.152344 10.425781 -4.128906 14.023438 -3.3125 C 17.378906 -2.574219 19.871094 -2.414062 26.984375 -2.453125 C 30.378906 -2.453125 32.503906 -2.617188 33.8125 -2.984375 C 34.222656 -3.066406 35.367188 -3.351562 36.308594 -3.515625 C 39.824219 -4.210938 41.582031 -4.90625 40.96875 -5.355469 C 40.847656 -5.4375 40.847656 -5.480469 41.050781 -5.480469 C 41.296875 -5.480469 42.359375 -6.5 42.238281 -6.625 C 42.195312 -6.664062 41.542969 -6.542969 40.804688 -6.378906 C 37.332031 -5.519531 32.628906 -5.070312 26.535156 -5.027344 C 22.855469 -4.988281 22.367188 -5.027344 22.160156 -5.234375 C 21.996094 -5.398438 21.589844 -5.480469 20.484375 -5.5625 C 15.660156 -5.847656 11.449219 -6.828125 9.035156 -8.175781 C 7.726562 -8.953125 7.03125 -9.402344 6.664062 -9.691406 C 6.378906 -9.9375 5.804688 -10.753906 5.804688 -10.917969 C 5.804688 -10.957031 6.253906 -11 6.828125 -11 C 10.015625 -11.039062 14.964844 -13.328125 19.707031 -16.925781 C 23.550781 -19.871094 25.144531 -21.382812 30.257812 -26.824219 C 30.828125 -27.476562 31.523438 -28.210938 31.769531 -28.417969 C 32.585938 -29.195312 35.449219 -32.792969 36.921875 -34.957031 C 38.558594 -37.332031 40.191406 -40.398438 40.722656 -42.074219 C 41.09375 -43.09375 41.132812 -43.382812 41.132812 -44.773438 C 41.132812 -46.242188 41.132812 -46.449219 40.722656 -47.632812 C 40.398438 -48.738281 40.273438 -48.941406 39.539062 -49.71875 C 38.597656 -50.742188 37.902344 -51.191406 36.636719 -51.558594 C 35.449219 -51.925781 34.101562 -51.925781 32.261719 -51.601562 C 29.847656 -51.152344 27.925781 -50.292969 25.882812 -48.777344 C 25.433594 -48.453125 25.023438 -48.207031 24.980469 -48.207031 C 24.941406 -48.207031 24.859375 -48.082031 24.820312 -47.960938 C 24.777344 -47.839844 24.695312 -47.757812 24.65625 -47.796875 C 24.613281 -47.839844 24.207031 -47.59375 23.675781 -47.183594 C 23.183594 -46.816406 22.652344 -46.40625 22.449219 -46.285156 C 22.285156 -46.203125 21.546875 -45.546875 20.8125 -44.894531 C 20.074219 -44.242188 19.460938 -43.707031 19.460938 -43.707031 C 19.421875 -43.707031 19.667969 -44.160156 19.953125 -44.730469 C 20.527344 -45.792969 20.527344 -45.835938 20.527344 -46.980469 C 20.527344 -48.289062 20.363281 -48.777344 19.832031 -49.066406 C 19.257812 -49.390625 18.5625 -49.308594 17.992188 -48.902344 C 16.683594 -47.960938 14.679688 -45.507812 13.003906 -42.808594 C 12.59375 -42.195312 11.855469 -41.132812 11.324219 -40.4375 L 10.304688 -39.171875 L 10.507812 -38.761719 C 10.710938 -38.351562 10.792969 -38.3125 11.570312 -38.1875 C 12.0625 -38.105469 12.101562 -38.148438 12.632812 -38.761719 C 13.535156 -39.824219 14.433594 -41.09375 15.210938 -42.277344 C 15.578125 -42.851562 15.945312 -43.421875 15.988281 -43.503906 C 16.109375 -43.628906 14.679688 -40.355469 13.410156 -37.617188 C 13.042969 -36.839844 12.714844 -36.226562 12.632812 -36.226562 C 12.347656 -36.226562 8.710938 -31.359375 7.03125 -28.785156 C 3.882812 -23.753906 1.472656 -18.113281 0.695312 -13.984375 C 0.121094 -10.957031 -0.0820312 -5.804688 0.246094 -2.453125 C 0.410156 -0.777344 0.410156 -0.492188 0.246094 0.121094 Z M 37.820312 -4.824219 C 38.679688 -4.988281 40.640625 -5.355469 40.683594 -5.273438 C 40.722656 -5.273438 40.398438 -5.152344 39.988281 -5.070312 C 39.578125 -4.988281 39.089844 -4.867188 38.882812 -4.785156 C 38.71875 -4.703125 38.3125 -4.660156 37.945312 -4.660156 L 37.332031 -4.703125 Z M 36.554688 -4.621094 C 36.675781 -4.660156 36.921875 -4.660156 37.085938 -4.621094 C 37.25 -4.578125 37.125 -4.578125 36.839844 -4.578125 C 36.511719 -4.578125 36.390625 -4.578125 36.554688 -4.621094 Z M 20.484375 -3.3125 C 20.320312 -3.3125 20.238281 -3.351562 20.320312 -3.394531 C 20.402344 -3.433594 20.527344 -3.433594 20.605469 -3.394531 C 20.6875 -3.351562 20.648438 -3.3125 20.484375 -3.3125 Z M 26.414062 -2.863281 C 25.226562 -2.738281 24.902344 -2.738281 23.675781 -2.863281 C 22.324219 -3.027344 23.429688 -3.109375 25.554688 -3.027344 L 27.515625 -2.945312 Z M 18.765625 -4.210938 C 20.320312 -3.964844 28.335938 -3.84375 30.175781 -4.046875 C 30.542969 -4.089844 31.484375 -4.171875 32.261719 -4.210938 C 33.039062 -4.210938 34.019531 -4.335938 34.425781 -4.375 C 34.878906 -4.457031 35.449219 -4.496094 35.695312 -4.496094 C 36.144531 -4.496094 36.144531 -4.496094 35.816406 -4.375 C 35.492188 -4.253906 33.488281 -4.007812 32.015625 -3.882812 C 31.484375 -3.84375 31.035156 -3.761719 30.953125 -3.679688 C 30.871094 -3.640625 30.746094 -3.640625 30.664062 -3.722656 C 30.421875 -3.882812 29.847656 -3.882812 29.765625 -3.722656 C 29.765625 -3.640625 29.5625 -3.640625 29.398438 -3.679688 C 29.195312 -3.722656 29.070312 -3.679688 28.988281 -3.558594 C 28.90625 -3.433594 28.867188 -3.433594 28.785156 -3.515625 C 28.703125 -3.722656 25.269531 -3.761719 25.023438 -3.597656 C 24.980469 -3.558594 24.820312 -3.476562 24.738281 -3.476562 C 24.492188 -3.394531 21.996094 -3.351562 21.589844 -3.394531 C 20.6875 -3.515625 20.484375 -3.597656 20.566406 -3.761719 C 20.605469 -3.964844 20.445312 -3.964844 19.625 -3.964844 C 19.09375 -4.007812 18.5625 -4.046875 18.480469 -4.128906 C 18.316406 -4.210938 18.398438 -4.253906 18.765625 -4.210938 Z M 18.890625 -3.761719 C 19.503906 -3.722656 20.074219 -3.640625 20.117188 -3.640625 C 20.199219 -3.515625 18.398438 -3.597656 18.03125 -3.722656 C 17.828125 -3.761719 18.195312 -3.800781 18.890625 -3.761719 Z M 4.210938 -9.894531 C 4.171875 -9.730469 3.964844 -8.871094 3.722656 -7.972656 C 3.515625 -7.074219 3.148438 -5.5625 2.984375 -4.621094 C 2.699219 -3.109375 2.574219 -2.65625 2.574219 -2.984375 C 2.574219 -3.476562 3.269531 -6.910156 3.722656 -8.585938 C 3.964844 -9.609375 4.335938 -10.589844 4.210938 -9.894531 Z M 36.144531 -35 C 35.53125 -34.058594 33.039062 -30.828125 32.097656 -29.808594 C 31.6875 -29.355469 30.789062 -28.417969 30.175781 -27.761719 C 29.5625 -27.148438 28.664062 -26.167969 28.171875 -25.636719 C 27.640625 -25.0625 27.109375 -24.53125 26.984375 -24.410156 C 26.824219 -24.289062 26.289062 -23.796875 25.800781 -23.304688 C 24.367188 -21.875 21.835938 -19.625 21.671875 -19.625 C 21.628906 -19.625 21.464844 -19.460938 21.261719 -19.257812 C 21.058594 -19.09375 20.8125 -18.972656 20.730469 -19.011719 C 20.566406 -19.09375 19.871094 -18.6875 19.871094 -18.523438 C 19.871094 -18.441406 20.074219 -18.523438 20.28125 -18.6875 C 20.527344 -18.847656 20.730469 -18.929688 20.730469 -18.890625 C 20.730469 -18.847656 20.445312 -18.644531 20.074219 -18.398438 C 19.75 -18.152344 19.421875 -17.910156 19.421875 -17.867188 C 19.378906 -17.828125 19.136719 -17.621094 18.890625 -17.417969 C 17.746094 -16.601562 17.539062 -16.476562 17.703125 -16.765625 C 17.746094 -16.886719 17.703125 -16.886719 17.5 -16.765625 C 17.378906 -16.683594 17.296875 -16.558594 17.335938 -16.476562 C 17.378906 -16.394531 17.296875 -16.3125 17.171875 -16.273438 C 17.089844 -16.230469 16.886719 -16.070312 16.722656 -15.945312 C 16.601562 -15.824219 16.273438 -15.617188 16.027344 -15.496094 C 15.578125 -15.25 15.578125 -15.25 15.78125 -15.539062 C 15.90625 -15.699219 15.945312 -15.824219 15.90625 -15.824219 C 15.824219 -15.824219 15.660156 -15.699219 15.578125 -15.539062 C 15.457031 -15.414062 15.414062 -15.292969 15.457031 -15.25 C 15.496094 -15.25 15.496094 -15.210938 15.414062 -15.128906 C 15.292969 -15.085938 15.085938 -15.046875 14.925781 -15.085938 C 14.636719 -15.128906 14.554688 -15.085938 14.515625 -14.84375 C 14.472656 -14.679688 14.390625 -14.597656 14.269531 -14.636719 C 14.066406 -14.71875 13.574219 -14.472656 13.65625 -14.351562 C 13.738281 -14.1875 13.207031 -13.902344 12.839844 -13.902344 C 12.675781 -13.902344 12.550781 -13.859375 12.550781 -13.777344 C 12.550781 -13.574219 11.242188 -13.085938 10.875 -13.207031 C 10.628906 -13.246094 10.507812 -13.207031 10.46875 -13.042969 C 10.386719 -12.878906 10.304688 -12.839844 10.058594 -12.878906 C 9.855469 -12.960938 9.691406 -12.921875 9.609375 -12.757812 C 9.527344 -12.675781 9.28125 -12.511719 9.078125 -12.472656 C 8.871094 -12.429688 8.628906 -12.308594 8.546875 -12.265625 C 8.464844 -12.183594 8.300781 -12.144531 8.21875 -12.183594 C 8.097656 -12.265625 7.933594 -12.226562 7.890625 -12.144531 C 7.808594 -12.101562 7.359375 -11.980469 6.867188 -11.9375 C 6.09375 -11.855469 5.96875 -11.855469 6.132812 -12.019531 C 6.214844 -12.144531 6.582031 -12.265625 6.949219 -12.390625 C 7.972656 -12.632812 9.160156 -13.003906 9.199219 -13.125 C 9.199219 -13.207031 9.324219 -13.207031 9.402344 -13.207031 C 9.484375 -13.207031 9.8125 -13.371094 10.140625 -13.492188 C 10.425781 -13.65625 10.792969 -13.820312 10.957031 -13.820312 C 11.449219 -13.820312 11.734375 -13.941406 11.652344 -14.105469 C 11.613281 -14.230469 11.652344 -14.3125 11.777344 -14.3125 C 11.855469 -14.3125 11.9375 -14.269531 11.898438 -14.1875 C 11.777344 -14.023438 12.390625 -14.3125 12.675781 -14.554688 C 12.757812 -14.636719 12.960938 -14.761719 13.164062 -14.800781 C 13.328125 -14.84375 13.535156 -14.964844 13.617188 -15.085938 C 13.699219 -15.167969 13.820312 -15.292969 13.902344 -15.292969 C 14.1875 -15.292969 15.003906 -15.824219 15.167969 -16.109375 C 15.210938 -16.230469 15.332031 -16.355469 15.414062 -16.355469 C 15.617188 -16.355469 16.191406 -16.886719 15.988281 -16.886719 C 15.90625 -16.886719 15.25 -16.558594 14.597656 -16.152344 C 13.902344 -15.742188 13.289062 -15.414062 13.289062 -15.457031 C 13.246094 -15.496094 13.328125 -15.578125 13.453125 -15.660156 C 13.574219 -15.742188 14.105469 -16.070312 14.679688 -16.394531 C 16.152344 -17.296875 18.398438 -18.847656 19.503906 -19.832031 C 20.074219 -20.28125 21.21875 -21.21875 22.078125 -21.957031 C 24.042969 -23.59375 25.226562 -24.738281 27.3125 -27.066406 C 29.234375 -29.195312 31.523438 -31.6875 32.382812 -32.546875 C 32.710938 -32.875 31.769531 -31.769531 30.257812 -30.09375 C 28.785156 -28.417969 27.597656 -26.984375 27.597656 -26.902344 C 27.597656 -26.617188 28.050781 -27.066406 29.96875 -29.070312 C 32.464844 -31.769531 35 -34.714844 36.144531 -36.347656 C 36.511719 -36.921875 36.429688 -36.636719 36.023438 -35.980469 C 35.898438 -35.734375 35.734375 -35.53125 35.734375 -35.449219 C 35.734375 -35.410156 35.613281 -35.246094 35.449219 -35.082031 C 35.285156 -34.957031 35.164062 -34.796875 35.164062 -34.714844 C 35.164062 -34.632812 34.917969 -34.265625 34.589844 -33.855469 C 33.570312 -32.667969 33.160156 -32.054688 33.160156 -31.851562 C 33.160156 -31.730469 33.445312 -32.015625 33.855469 -32.464844 C 34.222656 -32.914062 34.753906 -33.488281 35 -33.773438 C 35.246094 -34.019531 35.695312 -34.550781 35.980469 -34.917969 L 36.511719 -35.613281 Z M 12.347656 -15.003906 C 12.714844 -15.25 13.085938 -15.414062 13.085938 -15.375 C 13.125 -15.332031 12.839844 -15.128906 12.472656 -14.925781 C 11.570312 -14.472656 11.488281 -14.515625 12.347656 -15.003906 Z M 33.160156 -50.578125 C 33.242188 -50.617188 33.324219 -50.617188 33.40625 -50.578125 C 33.488281 -50.535156 33.488281 -50.535156 33.324219 -50.496094 C 33.199219 -50.496094 33.160156 -50.535156 33.160156 -50.578125 Z M 32.503906 -50.414062 C 32.75 -50.496094 32.792969 -50.457031 32.667969 -50.375 C 32.585938 -50.292969 32.382812 -50.210938 32.261719 -50.210938 C 31.972656 -50.210938 32.054688 -50.292969 32.503906 -50.414062 Z M 26.863281 -49.023438 C 26.984375 -49.105469 27.109375 -49.105469 27.109375 -49.066406 C 27.109375 -49.066406 26.984375 -48.941406 26.863281 -48.859375 C 26.742188 -48.777344 26.617188 -48.738281 26.617188 -48.777344 C 26.617188 -48.820312 26.742188 -48.941406 26.863281 -49.023438 Z M 26.167969 -47.429688 C 26.332031 -47.632812 26.660156 -47.839844 28.007812 -48.65625 C 28.867188 -49.1875 31.523438 -50.25 31.8125 -50.210938 C 31.933594 -50.167969 31.648438 -50.003906 31.15625 -49.84375 C 30.09375 -49.472656 29.355469 -49.105469 27.925781 -48.289062 C 26.453125 -47.390625 25.921875 -47.144531 26.167969 -47.429688 Z M 21.957031 -44.117188 C 23.347656 -45.425781 26.660156 -47.921875 25.71875 -46.980469 C 25.59375 -46.855469 25.0625 -46.40625 24.574219 -46 C 24.042969 -45.589844 23.304688 -44.976562 22.898438 -44.609375 C 22.527344 -44.28125 21.835938 -43.707031 21.425781 -43.382812 C 20.976562 -43.054688 20.15625 -42.320312 19.585938 -41.746094 C 18.605469 -40.765625 18.480469 -40.640625 18.480469 -40.765625 C 18.480469 -40.847656 20.730469 -43.015625 21.957031 -44.117188 Z M 17.746094 -40.027344 C 17.828125 -40.191406 17.949219 -40.273438 17.992188 -40.273438 C 18.074219 -40.273438 18.03125 -40.191406 17.910156 -40.027344 C 17.828125 -39.867188 17.703125 -39.742188 17.664062 -39.742188 C 17.664062 -39.742188 17.664062 -39.867188 17.746094 -40.027344 Z M 15.742188 -35.492188 C 16.925781 -38.269531 17.335938 -38.84375 19.136719 -40.519531 C 19.75 -41.09375 20.648438 -41.910156 21.058594 -42.359375 C 23.019531 -44.28125 26.863281 -47.226562 28.664062 -48.246094 C 30.460938 -49.230469 32.300781 -49.84375 34.183594 -50.128906 C 34.917969 -50.25 36.839844 -50.003906 37.535156 -49.679688 C 38.230469 -49.390625 39.089844 -48.777344 39.089844 -48.574219 C 39.089844 -48.492188 39.171875 -48.207031 39.253906 -47.960938 C 39.539062 -47.308594 39.414062 -46 38.964844 -44.445312 C 38.558594 -42.933594 37.984375 -41.746094 36.878906 -39.90625 C 36.429688 -39.089844 35.980469 -38.351562 35.980469 -38.230469 C 35.898438 -38.066406 35.816406 -37.984375 35.695312 -38.027344 C 35.492188 -38.066406 34.632812 -36.757812 34.796875 -36.636719 C 34.878906 -36.59375 34.632812 -36.1875 34.304688 -35.734375 C 33.9375 -35.246094 33.40625 -34.507812 33.078125 -34.019531 C 32.75 -33.570312 32.015625 -32.667969 31.441406 -32.015625 C 30.828125 -31.359375 29.808594 -30.214844 29.152344 -29.4375 C 28.457031 -28.703125 27.722656 -27.886719 27.4375 -27.679688 C 26.824219 -27.273438 26.414062 -26.863281 25.59375 -26.003906 C 25.269531 -25.636719 24.738281 -25.144531 24.410156 -24.902344 C 24.125 -24.65625 23.222656 -23.917969 22.488281 -23.265625 C 20.15625 -21.300781 17.992188 -19.585938 16.558594 -18.605469 C 13.777344 -16.722656 10.140625 -14.84375 8.054688 -14.1875 C 7.484375 -14.023438 6.949219 -13.859375 6.828125 -13.820312 C 6.664062 -13.777344 6.664062 -13.902344 6.992188 -14.679688 C 7.195312 -15.210938 7.484375 -15.988281 7.605469 -16.4375 C 7.769531 -16.886719 8.054688 -17.621094 8.257812 -18.074219 C 8.464844 -18.523438 8.789062 -19.460938 9.035156 -20.15625 C 9.445312 -21.34375 11.53125 -26.167969 13.820312 -31.195312 C 14.3125 -32.179688 15.167969 -34.140625 15.742188 -35.492188 Z M 11.855469 -29.644531 C 12.59375 -31.320312 13.289062 -32.957031 13.328125 -32.914062 C 13.371094 -32.875 13.085938 -32.136719 12.714844 -31.277344 C 12.347656 -30.460938 11.980469 -29.683594 11.9375 -29.644531 C 11.816406 -29.519531 11.816406 -29.519531 11.855469 -29.644531 Z M 13.699219 -33.976562 C 13.777344 -34.019531 13.820312 -33.976562 13.777344 -33.855469 C 13.699219 -33.609375 13.617188 -33.570312 13.617188 -33.773438 C 13.617188 -33.8125 13.65625 -33.9375 13.699219 -33.976562 Z M 13.492188 -33.199219 C 13.371094 -33.039062 13.371094 -33.078125 13.453125 -33.28125 C 13.453125 -33.40625 13.535156 -33.488281 13.574219 -33.445312 C 13.617188 -33.40625 13.574219 -33.28125 13.492188 -33.199219 Z M 9.035156 -25.636719 C 9.160156 -25.71875 9.199219 -25.839844 9.160156 -25.882812 C 9.035156 -26.085938 9.324219 -26.824219 9.527344 -26.824219 C 9.609375 -26.824219 9.894531 -27.355469 10.179688 -28.007812 C 10.835938 -29.5625 10.753906 -29.4375 11.164062 -30.09375 C 11.324219 -30.421875 11.488281 -30.789062 11.53125 -30.953125 C 11.570312 -31.359375 11.695312 -31.605469 11.855469 -31.484375 C 11.9375 -31.441406 11.9375 -31.484375 11.898438 -31.566406 C 11.816406 -31.730469 12.226562 -32.464844 12.675781 -32.996094 C 12.796875 -33.117188 12.878906 -33.28125 12.921875 -33.324219 C 12.921875 -33.40625 13.085938 -33.652344 13.289062 -33.976562 C 13.699219 -34.46875 13.65625 -34.34375 12.878906 -32.464844 C 12.429688 -31.359375 11.9375 -30.339844 11.855469 -30.214844 C 11.777344 -30.09375 11.695312 -29.96875 11.695312 -29.890625 C 11.695312 -29.808594 11.40625 -29.152344 11.039062 -28.417969 C 10.671875 -27.679688 10.386719 -26.984375 10.425781 -26.863281 C 10.425781 -26.742188 10.710938 -27.191406 11 -27.84375 C 11.449219 -28.867188 11.695312 -29.316406 11.695312 -29.113281 C 11.695312 -28.949219 11.082031 -27.476562 10.792969 -26.945312 C 10.589844 -26.617188 10.386719 -26.128906 10.304688 -25.882812 C 10.222656 -25.636719 9.9375 -24.980469 9.730469 -24.492188 C 9.527344 -23.960938 9.363281 -23.46875 9.402344 -23.386719 C 9.445312 -23.347656 9.363281 -23.140625 9.242188 -22.980469 C 9.117188 -22.816406 8.871094 -22.324219 8.667969 -21.875 C 8.464844 -21.425781 8.054688 -20.445312 7.6875 -19.667969 C 7.359375 -18.890625 7.074219 -18.195312 7.074219 -18.113281 C 7.074219 -18.03125 6.867188 -17.5 6.625 -16.925781 C 6.378906 -16.355469 6.011719 -15.375 5.804688 -14.761719 C 5.5625 -14.148438 5.355469 -13.65625 5.316406 -13.65625 C 5.152344 -13.65625 5.109375 -13.574219 5.96875 -15.824219 C 6.992188 -18.523438 7.15625 -18.929688 8.421875 -21.914062 C 8.996094 -23.265625 9.445312 -24.449219 9.445312 -24.53125 C 9.402344 -24.613281 9.199219 -24.246094 8.914062 -23.714844 C 7.726562 -21.058594 7.03125 -19.503906 6.789062 -18.808594 C 6.625 -18.398438 6.175781 -17.214844 5.722656 -16.230469 C 5.316406 -15.210938 4.949219 -14.230469 4.90625 -14.023438 C 4.824219 -13.820312 4.742188 -13.65625 4.703125 -13.65625 C 4.539062 -13.65625 4.578125 -13.902344 4.742188 -14.3125 C 5.109375 -15.046875 5.234375 -15.660156 5.070312 -15.90625 C 4.949219 -16.027344 4.988281 -16.152344 5.152344 -16.4375 C 5.273438 -16.722656 5.355469 -16.765625 5.4375 -16.640625 C 5.480469 -16.519531 5.601562 -16.601562 5.722656 -16.96875 C 6.132812 -18.113281 6.253906 -18.605469 6.132812 -18.644531 C 6.011719 -18.6875 5.96875 -19.09375 6.132812 -19.09375 C 6.175781 -19.09375 6.253906 -19.257812 6.296875 -19.503906 C 6.335938 -19.707031 6.417969 -19.871094 6.5 -19.832031 C 6.542969 -19.789062 6.582031 -19.871094 6.582031 -20.035156 C 6.542969 -20.402344 8.300781 -24.367188 8.464844 -24.367188 C 8.546875 -24.367188 8.628906 -24.449219 8.628906 -24.53125 C 8.628906 -24.613281 8.546875 -24.613281 8.464844 -24.574219 C 8.382812 -24.492188 8.464844 -24.695312 8.628906 -25.023438 C 8.75 -25.308594 8.953125 -25.59375 9.035156 -25.636719 Z M 4.703125 -15.210938 C 4.703125 -15.292969 4.785156 -15.457031 4.824219 -15.539062 C 4.90625 -15.660156 4.949219 -15.699219 4.949219 -15.617188 C 4.949219 -15.539062 4.90625 -15.375 4.824219 -15.292969 C 4.785156 -15.167969 4.703125 -15.128906 4.703125 -15.210938 Z M 5.683594 -18.03125 C 5.765625 -18.277344 5.847656 -18.359375 5.886719 -18.277344 C 5.886719 -18.195312 5.847656 -17.992188 5.722656 -17.867188 C 5.5625 -17.664062 5.5625 -17.664062 5.683594 -18.03125 Z M 3.109375 -15.167969 C 3.722656 -17.378906 4.90625 -20.402344 6.296875 -23.101562 C 6.867188 -24.164062 8.628906 -27.230469 8.667969 -27.230469 C 8.710938 -27.230469 8.464844 -26.699219 8.136719 -25.964844 C 6.542969 -22.609375 4.742188 -18.113281 3.925781 -15.617188 C 3.230469 -13.492188 3.269531 -13.535156 3.027344 -13.902344 C 2.863281 -14.1875 2.863281 -14.269531 3.109375 -15.167969 Z M 2.453125 -12.226562 C 2.617188 -13.410156 2.65625 -13.410156 2.738281 -12.921875 C 2.820312 -12.472656 2.78125 -12.183594 2.535156 -11.203125 C 2.332031 -10.550781 2.167969 -9.976562 2.167969 -9.894531 C 2.085938 -9.648438 2.25 -10.957031 2.453125 -12.226562 Z M 3.515625 -11.449219 C 3.597656 -11.570312 3.640625 -11.53125 3.722656 -11.285156 C 3.84375 -11 3.761719 -10.550781 3.230469 -8.628906 C 2.902344 -7.359375 2.535156 -5.847656 2.414062 -5.316406 C 2.332031 -4.785156 2.207031 -4.128906 2.207031 -3.925781 C 2.167969 -3.679688 2.125 -3.925781 2.125 -4.414062 C 2.125 -4.949219 2.167969 -5.355469 2.25 -5.355469 C 2.289062 -5.355469 2.332031 -5.480469 2.332031 -5.640625 C 2.332031 -5.929688 2.332031 -5.929688 2.25 -5.683594 C 2.125 -5.4375 2.125 -5.4375 2.125 -5.722656 C 2.085938 -6.253906 3.230469 -10.957031 3.515625 -11.449219 Z M 0.980469 1.511719 C 1.023438 1.390625 1.0625 1.1875 1.0625 1.0625 C 1.0625 0.941406 1.105469 0.898438 1.144531 0.980469 C 1.226562 1.0625 1.226562 1.265625 1.226562 1.429688 C 1.1875 1.59375 1.0625 1.71875 1.023438 1.71875 C 0.941406 1.71875 0.941406 1.636719 0.980469 1.511719 Z M 3.515625 -10.425781 C 3.597656 -10.589844 3.640625 -10.792969 3.640625 -10.917969 C 3.640625 -11.039062 3.597656 -11 3.515625 -10.835938 C 3.476562 -10.710938 3.433594 -10.46875 3.433594 -10.386719 C 3.433594 -10.222656 3.476562 -10.261719 3.515625 -10.425781 Z M 37.289062 -6.09375 C 37.125 -6.050781 36.675781 -5.96875 36.308594 -5.929688 C 35.941406 -5.886719 35.652344 -5.804688 35.652344 -5.722656 C 35.652344 -5.683594 35.734375 -5.640625 35.898438 -5.683594 C 36.0625 -5.722656 36.878906 -5.847656 37.78125 -5.96875 C 38.679688 -6.09375 39.578125 -6.214844 39.742188 -6.296875 L 40.070312 -6.417969 L 39.742188 -6.417969 C 39.496094 -6.417969 38.105469 -6.253906 37.289062 -6.09375 Z M 37.289062 -6.09375 "/></g></g></g><g fill="#ffde59" fill-opacity="1"><g transform="translate(64.236716, 206.371198)"><g><path d="M 9.199219 -25.433594 C 11.816406 -25.144531 15.988281 -25.472656 19.914062 -26.332031 C 19.914062 -26.332031 19.914062 -26.371094 19.914062 -26.371094 C 19.914062 -26.371094 19.914062 -26.371094 19.953125 -26.371094 C 19.992188 -26.414062 20.035156 -26.453125 20.035156 -26.496094 C 20.074219 -26.496094 20.074219 -26.496094 20.074219 -26.496094 C 20.074219 -26.535156 20.074219 -26.535156 20.117188 -26.578125 C 20.117188 -26.617188 20.15625 -26.660156 20.15625 -26.699219 C 20.15625 -26.699219 20.15625 -26.699219 20.199219 -26.742188 C 20.199219 -26.78125 20.238281 -26.863281 20.238281 -26.945312 C 20.238281 -26.984375 20.238281 -27.191406 20.238281 -27.230469 C 20.238281 -27.273438 20.199219 -27.476562 20.238281 -27.394531 C 20.238281 -27.4375 20.199219 -27.515625 20.199219 -27.597656 C 20.15625 -27.597656 20.117188 -27.722656 20.117188 -27.761719 C 20.117188 -27.761719 20.074219 -27.761719 20.074219 -27.804688 C 20.074219 -27.804688 20.035156 -27.804688 20.035156 -27.84375 C 19.421875 -27.722656 19.011719 -27.640625 18.972656 -27.679688 C 18.929688 -27.722656 19.257812 -27.804688 19.667969 -27.886719 C 19.75 -27.886719 19.832031 -27.925781 19.953125 -27.925781 C 19.914062 -27.96875 19.914062 -27.96875 19.871094 -28.007812 C 19.871094 -28.007812 19.832031 -28.007812 19.832031 -28.007812 C 19.789062 -28.050781 19.75 -28.050781 19.75 -28.050781 C 19.75 -28.050781 19.707031 -28.089844 19.667969 -28.089844 C 19.585938 -28.128906 19.542969 -28.128906 19.460938 -28.128906 C 19.421875 -28.128906 19.21875 -28.171875 19.175781 -28.171875 C 19.054688 -28.171875 18.972656 -28.171875 18.847656 -28.171875 C 18.6875 -28.171875 18.523438 -28.171875 18.359375 -28.171875 C 16.355469 -27.761719 14.679688 -27.515625 12.878906 -27.394531 C 9.976562 -27.148438 7.523438 -27.3125 7.523438 -27.679688 C 7.5625 -27.925781 6.707031 -28.867188 6.296875 -29.070312 C 5.847656 -29.316406 5.355469 -29.355469 4.90625 -29.195312 C 4.621094 -29.070312 4.496094 -29.113281 4.171875 -29.316406 C 3.761719 -29.5625 3.066406 -29.683594 2.984375 -29.519531 C 2.945312 -29.480469 3.027344 -29.234375 3.1875 -29.03125 L 3.476562 -28.621094 L 2.699219 -27.925781 C 0.652344 -26.085938 -1.144531 -23.386719 -2.003906 -20.976562 C -2.617188 -19.21875 -2.453125 -16.152344 -1.675781 -15.167969 C -1.472656 -14.925781 -1.308594 -14.679688 -1.308594 -14.597656 C -1.347656 -14.1875 -0.328125 -13.207031 0.285156 -13.042969 C 0.980469 -12.839844 1.429688 -12.839844 1.800781 -13.003906 C 1.960938 -13.042969 2.535156 -13.246094 3.066406 -13.371094 C 4.171875 -13.65625 4.867188 -14.023438 5.929688 -14.964844 C 7.074219 -15.988281 8.136719 -17.417969 8.710938 -18.726562 C 9.117188 -19.625 9.199219 -19.953125 9.242188 -20.894531 C 9.363281 -22.285156 9.199219 -23.304688 8.75 -24.492188 C 8.546875 -25.023438 8.339844 -25.472656 8.339844 -25.515625 C 8.300781 -25.554688 8.710938 -25.515625 9.199219 -25.433594 Z M 17.949219 -27.476562 C 18.074219 -27.558594 18.929688 -27.722656 18.808594 -27.640625 C 18.765625 -27.597656 18.523438 -27.515625 18.277344 -27.476562 C 18.03125 -27.4375 17.867188 -27.4375 17.949219 -27.476562 Z M 5.722656 -18.113281 C 4.539062 -16.804688 3.679688 -16.152344 2.371094 -15.578125 C 1.390625 -15.167969 0.941406 -15.046875 0.367188 -15.046875 C -0.328125 -15.046875 -0.367188 -15.046875 -0.449219 -15.375 C -0.734375 -16.273438 -0.449219 -18.234375 0.164062 -19.75 C 0.652344 -20.976562 2.371094 -23.917969 2.945312 -24.449219 C 3.1875 -24.695312 3.351562 -24.941406 3.394531 -25.023438 C 3.394531 -25.144531 5.109375 -26.824219 5.273438 -26.863281 C 5.355469 -26.902344 5.355469 -26.824219 5.355469 -26.742188 C 5.234375 -26.496094 5.4375 -26.167969 5.683594 -26.167969 C 5.804688 -26.128906 5.929688 -26.085938 5.96875 -26.003906 C 6.011719 -25.964844 6.214844 -25.882812 6.460938 -25.882812 C 6.828125 -25.882812 6.910156 -25.839844 7.195312 -25.351562 C 8.300781 -23.429688 7.644531 -20.28125 5.722656 -18.113281 Z M 5.722656 -18.113281 "/></g></g></g><g fill="#ffde59" fill-opacity="1"><g transform="translate(81.532194, 206.371198)"><g><path d="M 40.4375 -27.84375 C 40.316406 -27.886719 39.292969 -26.824219 37.167969 -24.328125 C 35.082031 -21.914062 31.074219 -17.992188 29.519531 -16.886719 C 28.5 -16.152344 27.273438 -15.578125 26.742188 -15.660156 L 26.289062 -15.699219 L 26.167969 -16.84375 C 26.046875 -17.621094 26.003906 -19.421875 26.046875 -21.957031 C 26.046875 -25.964844 26.003906 -26.617188 25.554688 -27.191406 C 25.472656 -27.3125 25.390625 -27.4375 25.390625 -27.515625 C 25.351562 -27.597656 25.1875 -27.804688 25.023438 -27.925781 C 24.613281 -28.292969 23.140625 -28.417969 22.652344 -28.089844 C 20.933594 -27.109375 17.664062 -23.511719 15.375 -20.074219 L 14.925781 -19.421875 L 14.964844 -19.871094 C 15.539062 -23.140625 15.578125 -23.59375 15.578125 -26.003906 C 15.617188 -28.457031 15.578125 -28.5 15.25 -29.277344 C 14.84375 -30.175781 14.597656 -30.503906 14.351562 -30.503906 C 14.230469 -30.503906 13.941406 -30.664062 13.699219 -30.871094 C 13.289062 -31.15625 13.164062 -31.195312 12.472656 -31.15625 C 11.855469 -31.117188 11.570312 -30.992188 11.121094 -30.707031 C 10.261719 -30.011719 8.097656 -27.679688 6.5 -25.675781 C 5.722656 -24.65625 4.988281 -23.714844 4.867188 -23.59375 C 4.621094 -23.304688 6.296875 -27.066406 7.277344 -28.988281 C 7.6875 -29.847656 8.421875 -31.035156 8.832031 -31.648438 C 9.242188 -32.261719 9.648438 -32.914062 9.730469 -33.117188 C 9.8125 -33.324219 9.9375 -33.527344 10.015625 -33.570312 C 10.304688 -33.691406 10.222656 -34.058594 9.9375 -34.058594 C 9.730469 -34.058594 9.730469 -34.140625 9.730469 -34.507812 C 9.773438 -34.917969 9.730469 -35 9.445312 -35.039062 C 9.28125 -35.039062 9.078125 -35.164062 8.914062 -35.285156 C 8.667969 -35.570312 7.769531 -35.777344 7.402344 -35.652344 C 7.113281 -35.570312 5.601562 -33.488281 4.414062 -31.523438 C 3.925781 -30.746094 3.351562 -29.890625 3.109375 -29.5625 C 2.617188 -28.90625 2.617188 -28.539062 3.109375 -28.90625 C 3.269531 -29.03125 3.476562 -29.070312 3.515625 -29.03125 C 3.558594 -28.949219 2.453125 -26.289062 1.0625 -23.0625 C -1.800781 -16.558594 -3.925781 -10.792969 -3.882812 -9.609375 C -3.882812 -8.628906 -3.269531 -7.195312 -2.78125 -7.195312 C -2.699219 -7.195312 -2.574219 -7.113281 -2.535156 -6.992188 C -2.496094 -6.910156 -2.289062 -6.789062 -2.125 -6.789062 L -2.125 -6.746094 C -1.921875 -6.746094 -1.757812 -6.707031 -1.71875 -6.707031 C -1.554688 -6.625 -0.734375 -7.726562 -0.734375 -7.972656 C -0.734375 -8.054688 -0.574219 -8.339844 -0.328125 -8.585938 C -0.0820312 -8.789062 0.328125 -9.527344 0.652344 -10.222656 C 2.738281 -14.925781 7.15625 -21.628906 11.324219 -26.453125 C 12.019531 -27.230469 12.59375 -27.886719 12.675781 -27.886719 C 12.714844 -27.886719 12.757812 -27.355469 12.757812 -26.699219 C 12.757812 -26.046875 12.796875 -25.515625 12.878906 -25.472656 C 13.042969 -25.351562 12.921875 -24.207031 12.675781 -22.980469 C 12.347656 -21.507812 12.019531 -19.175781 12.019531 -18.195312 C 12.019531 -16.84375 12.101562 -16.476562 12.675781 -15.824219 C 12.960938 -15.539062 13.289062 -15.046875 13.410156 -14.71875 C 13.699219 -14.105469 14.105469 -13.859375 14.554688 -14.1875 C 14.71875 -14.269531 14.964844 -14.390625 15.046875 -14.472656 C 15.25 -14.554688 15.332031 -14.636719 15.660156 -15.414062 C 15.742188 -15.617188 15.988281 -16.070312 16.152344 -16.394531 C 16.3125 -16.683594 16.601562 -17.253906 16.765625 -17.664062 C 17.378906 -18.972656 18.6875 -20.8125 20.402344 -22.816406 C 21.464844 -24.125 23.511719 -26.085938 23.714844 -26.085938 C 23.796875 -26.085938 23.796875 -25.351562 23.796875 -24.449219 C 23.753906 -23.101562 23.796875 -22.773438 23.917969 -22.773438 C 24.042969 -22.773438 24.042969 -22.652344 24 -22.324219 C 23.960938 -22.078125 23.917969 -20.894531 23.917969 -19.667969 C 23.917969 -17.621094 23.917969 -17.417969 24.164062 -16.84375 C 24.777344 -15.539062 25.882812 -14.1875 26.617188 -13.902344 C 28.089844 -13.289062 29.03125 -13.328125 30.421875 -14.148438 C 31.238281 -14.597656 32.21875 -15.332031 32.300781 -15.496094 C 32.300781 -15.578125 32.75 -16.027344 33.28125 -16.476562 C 33.773438 -16.96875 34.425781 -17.746094 34.753906 -18.234375 C 35.246094 -19.011719 37.371094 -21.507812 38.964844 -23.183594 C 39.703125 -24 40.234375 -25.105469 40.273438 -26.003906 L 40.316406 -26.660156 L 39.660156 -26.003906 L 39.90625 -26.414062 C 40.273438 -27.066406 39.988281 -26.984375 39.375 -26.25 C 39.089844 -25.882812 38.558594 -25.351562 38.1875 -25.023438 C 37.863281 -24.738281 38.269531 -25.226562 39.089844 -26.167969 C 39.945312 -27.066406 40.519531 -27.804688 40.4375 -27.84375 Z M -2.902344 -9.117188 C -3.027344 -8.832031 -3.027344 -8.832031 -3.066406 -9.28125 C -3.066406 -9.609375 -3.027344 -9.691406 -2.902344 -9.566406 C -2.820312 -9.484375 -2.820312 -9.363281 -2.902344 -9.117188 Z M -0.980469 -14.761719 C -1.472656 -13.371094 -2.820312 -10.386719 -2.820312 -10.589844 C -2.820312 -10.835938 -2.085938 -12.714844 -1.839844 -13.125 C -1.71875 -13.328125 -1.511719 -13.777344 -1.390625 -14.1875 C -1.308594 -14.554688 -1.144531 -14.925781 -1.105469 -14.964844 C -1.023438 -15.046875 -0.980469 -15.210938 -0.980469 -15.332031 C -0.980469 -15.578125 -0.53125 -16.355469 -0.492188 -16.152344 C -0.492188 -16.070312 -0.734375 -15.457031 -0.980469 -14.761719 Z M 3.066406 -24.207031 C 1.675781 -21.140625 1.1875 -20.074219 0.285156 -17.910156 C -0.0820312 -17.050781 -0.410156 -16.3125 -0.410156 -16.3125 C -0.53125 -16.3125 -0.410156 -17.171875 -0.285156 -17.253906 C -0.203125 -17.296875 -0.121094 -17.539062 -0.0820312 -17.746094 C -0.0390625 -17.992188 0.203125 -18.5625 0.410156 -19.09375 C 0.652344 -19.625 0.859375 -20.117188 0.859375 -20.199219 C 0.859375 -20.320312 0.859375 -20.445312 0.941406 -20.445312 C 1.105469 -20.527344 2.042969 -22.527344 1.960938 -22.652344 C 1.878906 -22.855469 2.453125 -24.042969 3.351562 -25.515625 C 3.800781 -26.207031 4.171875 -26.78125 4.210938 -26.78125 C 4.253906 -26.78125 3.722656 -25.59375 3.066406 -24.207031 Z M 7.277344 -25.839844 C 7.113281 -25.59375 6.910156 -25.390625 6.867188 -25.390625 C 6.707031 -25.390625 6.789062 -25.472656 7.195312 -25.882812 L 7.5625 -26.289062 Z M 8.503906 -27.394531 C 8.421875 -27.273438 8.300781 -27.191406 8.257812 -27.191406 C 8.257812 -27.191406 8.300781 -27.273438 8.382812 -27.394531 C 8.464844 -27.515625 8.546875 -27.597656 8.585938 -27.597656 C 8.628906 -27.597656 8.585938 -27.515625 8.503906 -27.394531 Z M 8.503906 -27.394531 "/></g></g></g><g fill="#ffde59" fill-opacity="1"><g transform="translate(118.453747, 206.371198)"><g><path d="M 22.980469 -23.917969 C 23.222656 -24.207031 23.550781 -24.695312 23.714844 -25.0625 C 23.917969 -25.433594 24.328125 -26.046875 24.65625 -26.414062 C 25.269531 -27.148438 25.472656 -27.4375 25.105469 -27.148438 C 24.980469 -27.027344 24.941406 -27.027344 24.941406 -27.191406 C 24.941406 -27.3125 25.023438 -27.558594 25.144531 -27.679688 C 25.554688 -28.253906 25.144531 -28.089844 24.53125 -27.4375 C 23.960938 -26.824219 24 -26.863281 24.695312 -27.761719 C 25.1875 -28.335938 25.515625 -28.824219 25.472656 -28.867188 C 25.390625 -28.949219 24.777344 -28.253906 23.46875 -26.824219 C 23.140625 -26.453125 22.40625 -25.675781 21.835938 -25.105469 C 21.300781 -24.53125 20.605469 -23.835938 20.363281 -23.511719 C 19.625 -22.734375 18.359375 -21.589844 17.539062 -20.933594 C 17.132812 -20.605469 16.3125 -19.953125 15.742188 -19.421875 C 14.679688 -18.5625 14.3125 -18.316406 14.636719 -18.726562 C 14.800781 -18.929688 14.761719 -18.929688 14.554688 -18.765625 C 13.984375 -18.359375 13.453125 -17.910156 13.453125 -17.785156 C 13.453125 -17.621094 12.839844 -17.132812 12.59375 -17.132812 C 12.511719 -17.132812 11.980469 -16.84375 11.449219 -16.519531 C 8.832031 -14.84375 6.253906 -13.859375 3.640625 -13.617188 C 2.496094 -13.492188 1.265625 -13.859375 1.265625 -14.3125 C 1.265625 -14.351562 1.636719 -14.554688 2.042969 -14.761719 C 4.292969 -15.699219 5.480469 -16.394531 8.300781 -18.359375 C 9.324219 -19.054688 10.875 -20.6875 11.570312 -21.710938 C 12.265625 -22.734375 12.632812 -23.632812 12.714844 -24.574219 C 12.839844 -25.554688 12.472656 -26.289062 11.285156 -27.4375 C 10.386719 -28.335938 9.691406 -28.742188 8.710938 -28.988281 C 8.421875 -29.03125 7.890625 -29.152344 7.523438 -29.234375 C 7.15625 -29.316406 6.707031 -29.355469 6.5 -29.277344 C 6.132812 -29.234375 5.316406 -28.457031 4.414062 -27.355469 C 4.046875 -26.945312 3.640625 -26.453125 3.433594 -26.25 C 2.574219 -25.351562 0.777344 -22.488281 -0.0390625 -20.730469 C -0.941406 -18.726562 -1.226562 -16.886719 -0.859375 -15.539062 C -0.816406 -15.375 -0.859375 -15.25 -1.105469 -15.167969 C -1.472656 -14.964844 -1.472656 -14.882812 -1.0625 -14.800781 C -0.816406 -14.761719 -0.613281 -14.597656 -0.410156 -14.230469 C 0.164062 -13.246094 2.414062 -11.285156 2.738281 -11.488281 C 2.820312 -11.53125 2.984375 -11.488281 3.148438 -11.367188 C 3.882812 -10.957031 8.136719 -11.613281 9.242188 -12.347656 C 9.402344 -12.429688 10.097656 -12.796875 10.753906 -13.164062 C 12.429688 -14.023438 14.433594 -15.375 16.109375 -16.722656 C 16.886719 -17.378906 21.589844 -22.160156 22.160156 -22.9375 C 22.40625 -23.183594 22.773438 -23.632812 22.980469 -23.917969 Z M 2.496094 -19.460938 C 3.3125 -21.097656 4.578125 -22.980469 6.132812 -24.902344 C 7.851562 -27.027344 8.585938 -27.515625 9.566406 -27.273438 C 10.261719 -27.066406 10.425781 -26.902344 10.507812 -26.371094 C 10.589844 -25.800781 10.140625 -24.289062 9.648438 -23.59375 C 9.117188 -22.855469 7.238281 -20.933594 6.296875 -20.117188 C 5.804688 -19.75 5.355469 -19.378906 5.355469 -19.339844 C 5.109375 -19.09375 3.925781 -18.195312 2.820312 -17.5 C 1.390625 -16.519531 1.265625 -16.4375 1.265625 -16.476562 C 1.265625 -16.765625 1.921875 -18.277344 2.496094 -19.460938 Z M 19.175781 -20.445312 C 18.972656 -20.199219 18.5625 -19.75 18.195312 -19.421875 C 17.746094 -18.972656 17.828125 -19.09375 18.480469 -19.832031 C 19.421875 -20.894531 19.789062 -21.179688 19.175781 -20.445312 Z M 19.175781 -20.445312 "/></g></g></g><g fill="#ffde59" fill-opacity="1"><g transform="translate(139.756219, 206.371198)"><g/></g></g><g fill="#ffde59" fill-opacity="1"><g transform="translate(156.111282, 206.371198)"><g><path d="M 41.09375 -22.078125 C 40.96875 -22.367188 36.554688 -21.996094 36.144531 -21.671875 C 35.980469 -21.507812 36.226562 -21.546875 37.984375 -21.710938 C 39.539062 -21.875 40.519531 -21.957031 40.929688 -21.957031 C 41.050781 -21.957031 41.132812 -21.996094 41.09375 -22.078125 Z M 0.285156 -26.902344 C 0.574219 -24.777344 2.289062 -21.671875 3.722656 -20.648438 C 5.5625 -19.339844 5.886719 -19.175781 8.015625 -18.605469 C 8.339844 -18.523438 8.75 -18.316406 8.914062 -18.195312 C 9.199219 -17.992188 9.730469 -17.910156 12.675781 -17.703125 C 17.089844 -17.335938 21.792969 -16.84375 22.039062 -16.722656 C 22.160156 -16.601562 21.996094 -16.4375 21.382812 -16.070312 C 20.894531 -15.78125 20.320312 -15.332031 20.035156 -15.085938 C 19.378906 -14.554688 18.5625 -14.066406 18.316406 -14.148438 C 18.195312 -14.148438 17.664062 -13.820312 17.132812 -13.371094 C 16.109375 -12.511719 15.414062 -11.980469 15.210938 -12.019531 C 15.128906 -12.019531 15.046875 -11.9375 14.964844 -11.855469 C 14.800781 -11.570312 12.960938 -10.222656 12.757812 -10.261719 C 12.675781 -10.261719 12.0625 -9.8125 11.488281 -9.28125 C 10.46875 -8.421875 9.9375 -8.054688 10.34375 -8.546875 C 10.46875 -8.667969 10.46875 -8.789062 10.425781 -8.871094 C 10.304688 -8.996094 8.175781 -6.867188 8.175781 -6.582031 C 8.136719 -6.417969 8.300781 -6.5 8.628906 -6.867188 L 9.117188 -7.402344 L 8.75 -6.867188 C 8.546875 -6.582031 8.339844 -6.214844 8.300781 -6.050781 C 8.257812 -5.847656 8.097656 -5.765625 7.890625 -5.722656 C 7.605469 -5.722656 7.523438 -5.601562 7.320312 -5.027344 C 7.195312 -4.660156 7.074219 -3.882812 6.992188 -3.351562 C 6.867188 -2.414062 6.867188 -2.25 7.195312 -1.390625 C 7.605469 -0.203125 7.972656 0.246094 8.585938 0.53125 C 9.28125 0.816406 10.097656 0.859375 11.53125 0.613281 C 12.960938 0.367188 16.3125 -0.574219 17.335938 -1.023438 C 17.664062 -1.1875 18.359375 -1.472656 18.765625 -1.59375 C 19.625 -1.921875 23.0625 -3.679688 23.183594 -3.882812 C 23.222656 -3.964844 23.222656 -4.007812 23.101562 -4.007812 C 22.9375 -4.007812 25.675781 -5.804688 26.289062 -6.09375 C 27.109375 -6.417969 29.152344 -8.546875 29.765625 -9.691406 C 30.257812 -10.628906 30.296875 -10.792969 30.378906 -11.816406 C 30.421875 -12.429688 30.378906 -13.085938 30.296875 -13.289062 C 29.890625 -14.433594 29.355469 -15.375 28.785156 -16.070312 C 28.375 -16.558594 28.171875 -16.886719 28.253906 -16.96875 C 28.457031 -17.171875 31.972656 -18.5625 34.222656 -19.339844 C 35.367188 -19.75 36.554688 -20.15625 36.839844 -20.28125 C 37.125 -20.402344 37.65625 -20.605469 37.984375 -20.6875 C 38.3125 -20.8125 38.640625 -20.933594 38.71875 -20.976562 C 38.761719 -21.058594 39.171875 -21.140625 39.578125 -21.21875 C 40.640625 -21.425781 40.640625 -21.425781 40.519531 -21.546875 C 40.273438 -21.875 34.304688 -21.015625 32.300781 -20.363281 C 31.972656 -20.28125 31.6875 -20.199219 31.648438 -20.238281 C 31.566406 -20.363281 32.464844 -20.6875 33.363281 -20.851562 C 34.101562 -21.058594 34.386719 -21.261719 33.855469 -21.300781 C 33.527344 -21.300781 30.050781 -20.320312 29.847656 -20.15625 C 29.808594 -20.074219 29.644531 -20.035156 29.519531 -20.035156 C 29.398438 -20.074219 29.277344 -19.953125 29.234375 -19.789062 C 29.152344 -19.625 29.070312 -19.542969 28.988281 -19.542969 C 28.867188 -19.542969 28.867188 -19.625 29.03125 -19.75 C 29.195312 -19.953125 29.195312 -19.953125 28.949219 -19.871094 C 28.785156 -19.832031 28.457031 -19.707031 28.210938 -19.625 C 27.96875 -19.585938 27.148438 -19.257812 26.453125 -18.972656 C 25.472656 -18.523438 25.105469 -18.441406 24.859375 -18.523438 C 24.367188 -18.765625 21.589844 -19.421875 19.992188 -19.667969 C 19.136719 -19.789062 17.335938 -19.992188 15.945312 -20.117188 C 11.449219 -20.527344 10.425781 -20.648438 8.914062 -21.015625 C 7.320312 -21.425781 7.113281 -21.507812 5.804688 -22.078125 C 4.578125 -22.652344 3.679688 -23.347656 2.863281 -24.410156 C 2.289062 -25.144531 2.085938 -25.554688 2.003906 -26.003906 C 1.839844 -26.863281 1.921875 -27.925781 2.207031 -28.824219 C 2.535156 -29.890625 3.476562 -31.6875 4.171875 -32.546875 C 5.683594 -34.46875 8.832031 -37.289062 11.777344 -39.414062 C 13.574219 -40.683594 13.535156 -40.683594 15.699219 -42.03125 C 16.722656 -42.605469 17.746094 -43.300781 17.992188 -43.546875 C 18.929688 -44.445312 25.71875 -47.714844 28.292969 -48.453125 C 28.988281 -48.65625 29.601562 -48.859375 29.683594 -48.941406 C 29.847656 -49.066406 31.035156 -49.351562 31.648438 -49.433594 C 31.933594 -49.472656 32.585938 -49.554688 33.078125 -49.679688 C 34.835938 -50.085938 40.027344 -50.414062 40.519531 -50.167969 C 40.722656 -50.085938 40.886719 -50.085938 40.929688 -50.167969 C 41.09375 -50.375 41.664062 -49.679688 41.664062 -49.351562 C 41.542969 -48.207031 39.375 -44.976562 36.839844 -42.195312 C 35.652344 -40.929688 35.121094 -40.234375 35.203125 -40.152344 C 35.246094 -40.109375 35.367188 -40.152344 35.449219 -40.273438 C 36.1875 -41.132812 37.085938 -42.15625 37.414062 -42.480469 C 37.617188 -42.726562 38.148438 -43.300781 38.558594 -43.832031 C 38.964844 -44.363281 39.332031 -44.8125 39.375 -44.773438 C 39.621094 -44.773438 36.0625 -40.722656 34.878906 -39.578125 C 34.507812 -39.253906 34.425781 -39.171875 34.632812 -39.414062 C 34.878906 -39.660156 35 -39.867188 34.957031 -39.945312 C 34.917969 -39.988281 34.796875 -39.945312 34.714844 -39.867188 C 32.21875 -37.289062 31.851562 -36.878906 31.933594 -36.675781 C 31.972656 -36.511719 31.933594 -36.472656 31.851562 -36.511719 C 31.8125 -36.554688 30.789062 -35.734375 29.644531 -34.671875 C 26.046875 -31.359375 24.042969 -29.808594 23.714844 -30.132812 C 23.59375 -30.257812 23.550781 -30.257812 23.550781 -30.132812 C 23.550781 -30.050781 23.511719 -30.011719 23.429688 -30.011719 C 23.347656 -30.011719 23.347656 -30.09375 23.386719 -30.214844 C 23.550781 -30.625 23.0625 -30.460938 22.773438 -30.011719 C 22.324219 -29.355469 22.609375 -28.171875 23.46875 -27.191406 C 23.796875 -26.78125 24 -26.699219 24.410156 -26.660156 C 24.902344 -26.617188 25.105469 -26.742188 26.085938 -27.515625 C 28.128906 -29.113281 31.484375 -32.261719 34.058594 -35.039062 C 34.796875 -35.816406 36.144531 -37.25 37.085938 -38.230469 C 43.21875 -44.609375 44.402344 -46.613281 43.503906 -48.941406 C 43.09375 -50.085938 41.949219 -51.3125 40.886719 -51.765625 C 39.496094 -52.378906 38.71875 -52.5 35.449219 -52.539062 C 32.875 -52.582031 30.582031 -52.214844 28.664062 -51.476562 C 28.375 -51.355469 27.722656 -51.109375 27.191406 -50.945312 C 26.699219 -50.78125 26.085938 -50.535156 25.800781 -50.414062 C 25.554688 -50.332031 24.980469 -50.25 24.53125 -50.292969 C 23.632812 -50.292969 23.632812 -50.292969 21.34375 -49.1875 C 20.035156 -48.574219 19.871094 -48.453125 19.953125 -48.289062 C 19.992188 -48.207031 20.238281 -48.246094 20.527344 -48.410156 C 20.8125 -48.535156 21.058594 -48.574219 21.058594 -48.535156 C 21.058594 -48.453125 20.8125 -48.289062 20.527344 -48.164062 C 18.929688 -47.429688 13.738281 -44.402344 12.632812 -43.546875 C 11.855469 -43.015625 10.140625 -41.828125 9.445312 -41.417969 C 9.117188 -41.253906 8.871094 -41.09375 8.832031 -41.050781 C 8.789062 -41.011719 8.546875 -40.804688 8.300781 -40.558594 L 7.808594 -40.191406 L 8.21875 -40.640625 C 8.421875 -40.847656 8.585938 -41.050781 8.546875 -41.132812 C 8.421875 -41.253906 7.195312 -40.273438 5.191406 -38.394531 C 2.289062 -35.695312 0.941406 -33.8125 0.328125 -31.890625 C 0.0390625 -30.992188 -0.164062 -28.582031 0.0390625 -28.171875 C 0.0820312 -28.050781 0.203125 -27.476562 0.285156 -26.902344 Z M 32.464844 -19.707031 C 32.585938 -19.789062 32.832031 -19.832031 32.996094 -19.914062 L 33.324219 -19.953125 L 32.996094 -19.789062 C 32.832031 -19.667969 32.585938 -19.585938 32.464844 -19.585938 C 32.300781 -19.625 32.300781 -19.625 32.464844 -19.707031 Z M 14.3125 -1.390625 C 14.105469 -1.347656 13.902344 -1.308594 13.902344 -1.347656 C 13.902344 -1.429688 14.597656 -1.675781 14.679688 -1.59375 C 14.679688 -1.554688 14.515625 -1.472656 14.3125 -1.390625 Z M 15.824219 -1.878906 C 15.210938 -1.71875 15.046875 -1.71875 15.457031 -1.921875 C 15.660156 -2.003906 15.742188 -2.125 15.660156 -2.167969 C 15.617188 -2.25 15.660156 -2.289062 15.78125 -2.25 C 16.152344 -2.167969 16.4375 -2.207031 16.355469 -2.371094 C 16.3125 -2.496094 16.476562 -2.535156 16.722656 -2.496094 C 16.765625 -2.496094 17.378906 -2.738281 18.074219 -3.066406 C 18.808594 -3.394531 19.378906 -3.597656 19.421875 -3.558594 C 19.460938 -3.433594 16.722656 -2.167969 15.824219 -1.878906 Z M 19.914062 -3.882812 C 19.832031 -3.640625 19.75 -3.597656 19.75 -3.800781 C 19.75 -3.882812 19.832031 -3.964844 19.871094 -4.007812 C 19.953125 -4.046875 19.992188 -3.964844 19.914062 -3.882812 Z M 22.773438 -5.601562 C 21.835938 -4.988281 20.8125 -4.457031 21.015625 -4.621094 C 21.179688 -4.785156 23.140625 -6.175781 23.59375 -6.417969 C 23.714844 -6.542969 24.125 -6.789062 24.449219 -7.03125 C 24.777344 -7.277344 25.0625 -7.441406 25.105469 -7.402344 C 25.144531 -7.320312 23.753906 -6.214844 22.773438 -5.601562 Z M 26.167969 -8.21875 C 25.800781 -7.851562 25.269531 -7.484375 25.269531 -7.605469 C 25.269531 -7.644531 25.59375 -7.851562 25.921875 -8.136719 C 26.535156 -8.585938 26.535156 -8.585938 26.167969 -8.21875 Z M 27.230469 -15.332031 C 28.5 -14.554688 28.664062 -14.066406 28.050781 -12.796875 C 27.4375 -11.570312 25.964844 -9.855469 24.941406 -9.199219 C 24.082031 -8.667969 23.347656 -8.054688 22.773438 -7.484375 C 22.449219 -7.15625 21.957031 -6.789062 21.628906 -6.582031 C 21.261719 -6.417969 20.8125 -6.132812 20.605469 -5.96875 C 20.402344 -5.804688 19.75 -5.4375 19.21875 -5.191406 C 18.277344 -4.785156 17.621094 -4.335938 17.910156 -4.335938 C 18.074219 -4.292969 20.074219 -5.152344 20.894531 -5.601562 C 21.34375 -5.804688 21.753906 -6.011719 21.792969 -5.96875 C 21.835938 -5.929688 19.300781 -4.578125 18.929688 -4.496094 C 18.890625 -4.457031 18.847656 -4.375 18.890625 -4.335938 C 18.929688 -4.253906 19.21875 -4.292969 19.542969 -4.414062 C 20.484375 -4.742188 20.074219 -4.496094 18.6875 -3.882812 C 16.4375 -2.902344 13.902344 -2.042969 11.9375 -1.636719 C 11.203125 -1.472656 10.34375 -1.390625 9.773438 -1.429688 L 8.832031 -1.472656 L 9.648438 -1.59375 C 10.792969 -1.800781 11.898438 -2.085938 11.898438 -2.25 C 11.898438 -2.371094 11.695312 -2.371094 10.46875 -2.167969 C 10.140625 -2.125 9.648438 -2.085938 9.324219 -2.125 C 8.789062 -2.167969 8.75 -2.167969 9.078125 -2.289062 C 9.324219 -2.414062 9.363281 -2.414062 9.160156 -2.496094 C 8.832031 -2.617188 8.914062 -2.820312 9.691406 -3.882812 C 10.753906 -5.316406 13.617188 -8.015625 15.375 -9.28125 C 15.824219 -9.609375 16.804688 -10.304688 17.621094 -10.875 C 18.398438 -11.449219 19.09375 -11.898438 19.136719 -11.898438 C 19.175781 -11.898438 20.117188 -12.511719 21.261719 -13.207031 C 22.367188 -13.902344 23.878906 -14.800781 24.574219 -15.210938 C 25.964844 -16.027344 26.085938 -15.988281 27.230469 -15.332031 Z M 24.367188 -16.476562 C 24.53125 -16.3125 24.246094 -16.027344 23.550781 -15.742188 C 23.140625 -15.539062 22.734375 -15.292969 22.652344 -15.167969 C 22.527344 -15.085938 22.367188 -15.003906 22.242188 -15.003906 C 22.121094 -15.003906 21.957031 -14.925781 21.835938 -14.84375 C 21.753906 -14.71875 21.589844 -14.636719 21.507812 -14.636719 C 21.382812 -14.636719 21.300781 -14.597656 21.300781 -14.515625 C 21.300781 -14.433594 21.21875 -14.390625 21.097656 -14.390625 C 21.015625 -14.390625 20.6875 -14.1875 20.402344 -13.902344 C 20.074219 -13.617188 19.75 -13.371094 19.667969 -13.371094 C 19.460938 -13.410156 18.890625 -13.003906 18.890625 -12.796875 C 18.890625 -12.714844 18.808594 -12.59375 18.726562 -12.550781 C 18.605469 -12.472656 18.605469 -12.511719 18.6875 -12.632812 C 18.765625 -12.757812 18.726562 -12.757812 18.605469 -12.757812 C 18.480469 -12.714844 18.441406 -12.59375 18.441406 -12.472656 C 18.441406 -12.308594 18.359375 -12.265625 18.074219 -12.265625 C 17.664062 -12.308594 17.378906 -12.183594 17.460938 -12.019531 C 17.5 -11.9375 17.171875 -11.734375 16.765625 -11.570312 C 16.070312 -11.242188 15.414062 -10.835938 13.574219 -9.484375 C 12.960938 -9.035156 12.429688 -8.832031 12.839844 -9.199219 C 13.65625 -9.9375 15.90625 -11.570312 17.417969 -12.511719 C 18.398438 -13.125 19.789062 -13.984375 20.445312 -14.472656 C 21.671875 -15.292969 24.246094 -16.640625 24.367188 -16.476562 Z M 40.847656 -46.898438 C 40.929688 -47.019531 41.050781 -47.144531 41.050781 -47.144531 C 41.09375 -47.144531 41.09375 -47.019531 41.011719 -46.898438 C 40.886719 -46.734375 40.804688 -46.613281 40.765625 -46.613281 C 40.722656 -46.613281 40.765625 -46.734375 40.847656 -46.898438 Z M 40.640625 -46.488281 C 40.683594 -46.488281 40.4375 -46.121094 40.152344 -45.710938 C 39.578125 -44.976562 39.457031 -44.8125 39.457031 -44.976562 C 39.457031 -45.097656 40.601562 -46.488281 40.640625 -46.488281 Z M 40.886719 -44.691406 C 40.355469 -43.871094 37.617188 -40.558594 37.167969 -40.152344 C 36.921875 -39.988281 36.265625 -39.292969 35.652344 -38.640625 C 35.039062 -38.027344 34.265625 -37.207031 33.9375 -36.839844 C 33.570312 -36.472656 33.199219 -36.105469 33.078125 -36.0625 C 32.914062 -35.941406 34.140625 -37.289062 36.59375 -39.824219 C 37.902344 -41.175781 38.800781 -42.195312 39.785156 -43.464844 C 40.234375 -44.035156 40.722656 -44.648438 40.886719 -44.855469 L 41.175781 -45.140625 Z M 5.355469 -35 C 4.660156 -34.265625 4.660156 -34.265625 4.457031 -34.425781 C 4.335938 -34.507812 4.375 -34.589844 4.578125 -34.796875 C 4.785156 -34.917969 4.824219 -34.957031 4.742188 -34.835938 C 4.660156 -34.753906 4.578125 -34.589844 4.539062 -34.507812 C 4.539062 -34.425781 4.867188 -34.671875 5.273438 -35 L 5.96875 -35.652344 Z M 7.238281 -37.167969 C 7.074219 -37.003906 7.03125 -37.042969 7.113281 -37.207031 C 7.195312 -37.414062 7.441406 -37.492188 7.441406 -37.371094 C 7.441406 -37.332031 7.359375 -37.25 7.238281 -37.167969 Z M 9.609375 -39.210938 C 9.402344 -39.046875 9.242188 -38.964844 9.242188 -39.007812 C 9.242188 -39.046875 9.402344 -39.171875 9.648438 -39.332031 C 9.855469 -39.496094 10.058594 -39.578125 10.015625 -39.539062 C 10.015625 -39.496094 9.855469 -39.332031 9.609375 -39.210938 Z M 11.242188 -40.398438 C 11.164062 -40.316406 11.039062 -40.191406 11 -40.191406 C 10.957031 -40.191406 11.039062 -40.316406 11.121094 -40.398438 C 11.203125 -40.519531 11.324219 -40.601562 11.367188 -40.601562 C 11.40625 -40.601562 11.324219 -40.519531 11.242188 -40.398438 Z M 17.050781 -44.199219 C 16.96875 -44.078125 16.804688 -43.953125 16.722656 -43.953125 C 16.640625 -43.996094 16.601562 -43.996094 16.640625 -44.035156 C 16.683594 -44.035156 16.84375 -44.117188 16.96875 -44.242188 C 17.214844 -44.402344 17.214844 -44.402344 17.050781 -44.199219 Z M 19.667969 -45.710938 C 19.503906 -45.546875 19.339844 -45.46875 19.257812 -45.46875 C 19.136719 -45.46875 19.054688 -45.386719 19.011719 -45.304688 C 18.972656 -45.222656 18.929688 -45.222656 18.890625 -45.386719 C 18.808594 -45.671875 19.257812 -46 19.667969 -46 C 19.914062 -45.957031 19.914062 -45.957031 19.667969 -45.710938 Z M 26.371094 -48.859375 C 26.25 -48.777344 26.085938 -48.738281 26.046875 -48.738281 C 25.964844 -48.777344 26.003906 -48.820312 26.128906 -48.859375 C 26.207031 -48.941406 26.371094 -48.984375 26.453125 -48.984375 C 26.496094 -48.984375 26.496094 -48.941406 26.371094 -48.859375 Z M 26.085938 -49.472656 C 26.207031 -49.515625 26.25 -49.515625 26.207031 -49.433594 C 26.167969 -49.351562 26.046875 -49.308594 26.003906 -49.308594 C 25.800781 -49.308594 25.882812 -49.390625 26.085938 -49.472656 Z M 25.71875 -48.738281 C 25.800781 -48.695312 25.433594 -48.492188 24.902344 -48.289062 C 24.367188 -48.042969 23.714844 -47.796875 23.511719 -47.714844 C 23.304688 -47.59375 23.183594 -47.59375 23.265625 -47.675781 C 23.46875 -47.878906 25.59375 -48.777344 25.71875 -48.738281 Z M 25.472656 -49.269531 C 25.554688 -49.308594 25.59375 -49.269531 25.59375 -49.1875 C 25.59375 -49.105469 25.554688 -49.066406 25.472656 -49.066406 C 25.308594 -49.066406 25.308594 -49.148438 25.472656 -49.269531 Z M 21.261719 -47.59375 C 21.671875 -47.960938 24.941406 -49.148438 24.738281 -48.820312 C 24.695312 -48.738281 24.492188 -48.695312 24.246094 -48.65625 C 24.042969 -48.617188 23.265625 -48.328125 22.609375 -48.042969 C 21.507812 -47.59375 21.097656 -47.429688 21.261719 -47.59375 Z M 2.945312 -34.957031 C 4.414062 -36.800781 8.054688 -40.027344 10.671875 -41.828125 C 13.207031 -43.585938 13.164062 -43.546875 17.253906 -46 C 17.460938 -46.164062 17.949219 -46.324219 18.277344 -46.40625 C 18.644531 -46.53125 19.378906 -46.816406 19.953125 -47.0625 C 20.527344 -47.308594 21.015625 -47.550781 21.058594 -47.550781 C 21.300781 -47.511719 20.8125 -47.226562 19.832031 -46.734375 C 19.175781 -46.40625 18.441406 -46.039062 18.195312 -45.835938 C 17.992188 -45.671875 17.746094 -45.546875 17.703125 -45.546875 C 17.621094 -45.546875 17.132812 -45.261719 16.519531 -44.894531 C 15.90625 -44.527344 15.085938 -44.035156 14.636719 -43.75 C 14.1875 -43.503906 13.246094 -42.890625 12.550781 -42.402344 C 11.855469 -41.949219 11.203125 -41.5 11.082031 -41.460938 C 10.671875 -41.335938 8.667969 -39.703125 7.03125 -38.1875 C 5.109375 -36.390625 3.597656 -34.796875 2.65625 -33.40625 C 2.207031 -32.832031 1.757812 -32.136719 1.554688 -31.890625 C 1.105469 -31.195312 1.226562 -31.523438 1.71875 -32.464844 C 2.25 -33.363281 2.78125 -34.101562 4.496094 -36.105469 L 5.683594 -37.453125 L 4.703125 -36.554688 C 3.558594 -35.53125 2.371094 -34.101562 1.757812 -33.078125 C 1.511719 -32.710938 1.347656 -32.425781 1.347656 -32.503906 C 1.347656 -32.75 2.167969 -33.976562 2.945312 -34.957031 Z M 21.21875 -16.152344 C 21.261719 -16.230469 21.261719 -16.3125 21.21875 -16.3125 C 21.097656 -16.3125 20.074219 -15.660156 20.074219 -15.578125 C 20.074219 -15.496094 21.140625 -16.027344 21.21875 -16.152344 Z M 11.164062 -9.28125 C 11.449219 -9.484375 12.183594 -10.097656 12.839844 -10.628906 C 14.066406 -11.613281 14.390625 -11.9375 13.902344 -11.695312 C 13.65625 -11.570312 11.242188 -9.730469 10.792969 -9.324219 C 10.710938 -9.242188 10.628906 -9.078125 10.628906 -8.996094 C 10.628906 -8.914062 10.875 -9.035156 11.164062 -9.28125 Z M 18.6875 -5.355469 C 18.5625 -5.398438 18.316406 -5.273438 18.152344 -5.152344 C 17.703125 -4.785156 18.074219 -4.742188 18.523438 -5.109375 C 18.808594 -5.273438 18.808594 -5.355469 18.6875 -5.355469 Z M 18.6875 -5.355469 "/></g></g></g><g fill="#ffde59" fill-opacity="1"><g transform="translate(195.404323, 206.371198)"><g><path d="M 7.238281 -13.492188 C 7.238281 -13.574219 7.277344 -13.699219 7.402344 -13.738281 C 7.605469 -13.859375 8.382812 -14.679688 9.242188 -15.742188 C 11.121094 -17.992188 11.488281 -18.480469 12.144531 -19.585938 C 14.761719 -23.675781 15.128906 -24.449219 15.128906 -25.105469 L 15.085938 -25.515625 L 14.925781 -25.226562 C 14.800781 -25.105469 14.761719 -24.941406 14.800781 -24.902344 C 14.925781 -24.777344 14.636719 -24.246094 14.515625 -24.328125 C 14.433594 -24.328125 14.390625 -24.328125 14.472656 -24.246094 C 14.554688 -24.164062 12.839844 -21.628906 12.265625 -21.015625 C 12.019531 -20.769531 11.980469 -20.730469 12.019531 -20.933594 C 12.019531 -21.058594 12.101562 -21.21875 12.183594 -21.34375 C 12.632812 -21.957031 13.699219 -23.59375 14.1875 -24.367188 C 14.472656 -24.859375 14.800781 -25.351562 14.925781 -25.433594 C 15.003906 -25.554688 15.046875 -25.675781 15.003906 -25.757812 C 14.925781 -25.964844 14.761719 -25.757812 14.269531 -24.941406 C 14.066406 -24.574219 13.820312 -24.207031 13.777344 -24.125 C 13.699219 -24.042969 13.574219 -23.796875 13.453125 -23.632812 C 13.371094 -23.46875 13.289062 -23.347656 13.246094 -23.429688 C 13.246094 -23.46875 13.535156 -23.917969 13.859375 -24.492188 C 14.1875 -24.980469 14.433594 -25.472656 14.351562 -25.515625 C 14.3125 -25.554688 14.351562 -25.636719 14.433594 -25.636719 C 14.636719 -25.675781 15.25 -26.824219 15.128906 -26.902344 C 15.085938 -26.945312 14.964844 -26.742188 14.800781 -26.453125 C 14.636719 -26.167969 14.472656 -25.921875 14.390625 -25.921875 C 14.3125 -25.921875 13.941406 -25.390625 13.574219 -24.777344 C 11.367188 -21.21875 6.910156 -15.945312 3.800781 -13.289062 C 2.371094 -12.0625 1.265625 -11.324219 0.613281 -11.203125 L 0.0820312 -11.082031 L 0.0390625 -11.570312 C 0 -11.898438 0 -12.183594 0.0390625 -12.226562 C 0.203125 -12.429688 0.121094 -12.757812 -0.0820312 -12.632812 C -0.164062 -12.59375 -0.203125 -12.59375 -0.203125 -12.675781 C -0.203125 -12.757812 -0.121094 -12.839844 0 -12.839844 C 0.0820312 -12.839844 0.164062 -13.042969 0.246094 -13.410156 C 0.492188 -14.882812 1.472656 -17.828125 2.125 -19.054688 C 2.207031 -19.175781 2.414062 -19.625 2.574219 -19.992188 C 2.738281 -20.363281 2.984375 -20.851562 3.109375 -21.097656 C 3.230469 -21.34375 3.558594 -21.914062 3.84375 -22.449219 C 4.089844 -22.9375 4.457031 -23.59375 4.621094 -23.917969 C 4.785156 -24.207031 5.109375 -24.777344 5.273438 -25.1875 C 5.480469 -25.554688 5.722656 -26.085938 5.886719 -26.371094 C 6.011719 -26.660156 6.132812 -27.027344 6.132812 -27.3125 L 6.09375 -27.804688 L 5.316406 -28.292969 C 4.660156 -28.742188 4.457031 -28.824219 4.128906 -28.785156 C 3.761719 -28.742188 3.679688 -28.664062 3.148438 -27.925781 C 2.617188 -27.148438 2.414062 -26.78125 1.265625 -24.410156 C 0.941406 -23.714844 0.53125 -22.855469 0.367188 -22.527344 C 0.203125 -22.203125 -0.121094 -21.464844 -0.328125 -20.851562 C -0.53125 -20.28125 -0.816406 -19.503906 -0.980469 -19.09375 C -1.105469 -18.726562 -1.308594 -18.113281 -1.390625 -17.785156 C -1.511719 -17.460938 -1.636719 -16.925781 -1.71875 -16.640625 C -1.960938 -15.742188 -2.574219 -12.429688 -2.535156 -12.144531 C -2.535156 -12.0625 -2.289062 -11.734375 -2.003906 -11.367188 C -1.105469 -10.222656 0.0820312 -9.609375 1.308594 -9.648438 C 1.636719 -9.648438 1.878906 -9.648438 1.921875 -9.648438 C 2.414062 -9.648438 4.539062 -10.835938 5.398438 -11.652344 C 6.460938 -12.59375 7.238281 -13.410156 7.238281 -13.492188 Z M 11.324219 -20.320312 C 11.488281 -20.28125 11.613281 -20.199219 11.652344 -20.199219 C 11.652344 -20.199219 11.570312 -20.15625 11.40625 -20.117188 C 11.242188 -20.117188 11.121094 -20.15625 11.121094 -20.238281 C 11.121094 -20.320312 11.164062 -20.363281 11.324219 -20.320312 Z M 5.847656 -33.445312 C 5.929688 -33.363281 6.011719 -33.242188 6.050781 -33.199219 C 6.050781 -33.117188 6.214844 -32.914062 6.378906 -32.710938 C 6.582031 -32.464844 6.746094 -32.382812 7.074219 -32.382812 C 7.277344 -32.382812 7.523438 -32.382812 7.5625 -32.34375 C 7.769531 -32.097656 8.175781 -32.628906 8.953125 -34.140625 C 9.527344 -35.246094 10.097656 -36.1875 10.957031 -37.332031 C 11.242188 -37.699219 11.53125 -38.1875 11.53125 -38.351562 C 11.53125 -38.515625 11.613281 -38.761719 11.652344 -38.84375 C 11.734375 -39.007812 11.695312 -39.171875 11.488281 -39.578125 C 11.121094 -40.398438 10.917969 -40.355469 9.894531 -39.414062 C 8.832031 -38.433594 6.828125 -35.777344 6.132812 -34.550781 C 5.683594 -33.652344 5.640625 -33.570312 5.847656 -33.445312 Z M 5.847656 -33.445312 "/></g></g></g><g fill="#ffde59" fill-opacity="1"><g transform="translate(208.692807, 206.371198)"><g><path d="M 40.4375 -27.84375 C 40.316406 -27.886719 39.292969 -26.824219 37.167969 -24.328125 C 35.082031 -21.914062 31.074219 -17.992188 29.519531 -16.886719 C 28.5 -16.152344 27.273438 -15.578125 26.742188 -15.660156 L 26.289062 -15.699219 L 26.167969 -16.84375 C 26.046875 -17.621094 26.003906 -19.421875 26.046875 -21.957031 C 26.046875 -25.964844 26.003906 -26.617188 25.554688 -27.191406 C 25.472656 -27.3125 25.390625 -27.4375 25.390625 -27.515625 C 25.351562 -27.597656 25.1875 -27.804688 25.023438 -27.925781 C 24.613281 -28.292969 23.140625 -28.417969 22.652344 -28.089844 C 20.933594 -27.109375 17.664062 -23.511719 15.375 -20.074219 L 14.925781 -19.421875 L 14.964844 -19.871094 C 15.539062 -23.140625 15.578125 -23.59375 15.578125 -26.003906 C 15.617188 -28.457031 15.578125 -28.5 15.25 -29.277344 C 14.84375 -30.175781 14.597656 -30.503906 14.351562 -30.503906 C 14.230469 -30.503906 13.941406 -30.664062 13.699219 -30.871094 C 13.289062 -31.15625 13.164062 -31.195312 12.472656 -31.15625 C 11.855469 -31.117188 11.570312 -30.992188 11.121094 -30.707031 C 10.261719 -30.011719 8.097656 -27.679688 6.5 -25.675781 C 5.722656 -24.65625 4.988281 -23.714844 4.867188 -23.59375 C 4.621094 -23.304688 6.296875 -27.066406 7.277344 -28.988281 C 7.6875 -29.847656 8.421875 -31.035156 8.832031 -31.648438 C 9.242188 -32.261719 9.648438 -32.914062 9.730469 -33.117188 C 9.8125 -33.324219 9.9375 -33.527344 10.015625 -33.570312 C 10.304688 -33.691406 10.222656 -34.058594 9.9375 -34.058594 C 9.730469 -34.058594 9.730469 -34.140625 9.730469 -34.507812 C 9.773438 -34.917969 9.730469 -35 9.445312 -35.039062 C 9.28125 -35.039062 9.078125 -35.164062 8.914062 -35.285156 C 8.667969 -35.570312 7.769531 -35.777344 7.402344 -35.652344 C 7.113281 -35.570312 5.601562 -33.488281 4.414062 -31.523438 C 3.925781 -30.746094 3.351562 -29.890625 3.109375 -29.5625 C 2.617188 -28.90625 2.617188 -28.539062 3.109375 -28.90625 C 3.269531 -29.03125 3.476562 -29.070312 3.515625 -29.03125 C 3.558594 -28.949219 2.453125 -26.289062 1.0625 -23.0625 C -1.800781 -16.558594 -3.925781 -10.792969 -3.882812 -9.609375 C -3.882812 -8.628906 -3.269531 -7.195312 -2.78125 -7.195312 C -2.699219 -7.195312 -2.574219 -7.113281 -2.535156 -6.992188 C -2.496094 -6.910156 -2.289062 -6.789062 -2.125 -6.789062 L -2.125 -6.746094 C -1.921875 -6.746094 -1.757812 -6.707031 -1.71875 -6.707031 C -1.554688 -6.625 -0.734375 -7.726562 -0.734375 -7.972656 C -0.734375 -8.054688 -0.574219 -8.339844 -0.328125 -8.585938 C -0.0820312 -8.789062 0.328125 -9.527344 0.652344 -10.222656 C 2.738281 -14.925781 7.15625 -21.628906 11.324219 -26.453125 C 12.019531 -27.230469 12.59375 -27.886719 12.675781 -27.886719 C 12.714844 -27.886719 12.757812 -27.355469 12.757812 -26.699219 C 12.757812 -26.046875 12.796875 -25.515625 12.878906 -25.472656 C 13.042969 -25.351562 12.921875 -24.207031 12.675781 -22.980469 C 12.347656 -21.507812 12.019531 -19.175781 12.019531 -18.195312 C 12.019531 -16.84375 12.101562 -16.476562 12.675781 -15.824219 C 12.960938 -15.539062 13.289062 -15.046875 13.410156 -14.71875 C 13.699219 -14.105469 14.105469 -13.859375 14.554688 -14.1875 C 14.71875 -14.269531 14.964844 -14.390625 15.046875 -14.472656 C 15.25 -14.554688 15.332031 -14.636719 15.660156 -15.414062 C 15.742188 -15.617188 15.988281 -16.070312 16.152344 -16.394531 C 16.3125 -16.683594 16.601562 -17.253906 16.765625 -17.664062 C 17.378906 -18.972656 18.6875 -20.8125 20.402344 -22.816406 C 21.464844 -24.125 23.511719 -26.085938 23.714844 -26.085938 C 23.796875 -26.085938 23.796875 -25.351562 23.796875 -24.449219 C 23.753906 -23.101562 23.796875 -22.773438 23.917969 -22.773438 C 24.042969 -22.773438 24.042969 -22.652344 24 -22.324219 C 23.960938 -22.078125 23.917969 -20.894531 23.917969 -19.667969 C 23.917969 -17.621094 23.917969 -17.417969 24.164062 -16.84375 C 24.777344 -15.539062 25.882812 -14.1875 26.617188 -13.902344 C 28.089844 -13.289062 29.03125 -13.328125 30.421875 -14.148438 C 31.238281 -14.597656 32.21875 -15.332031 32.300781 -15.496094 C 32.300781 -15.578125 32.75 -16.027344 33.28125 -16.476562 C 33.773438 -16.96875 34.425781 -17.746094 34.753906 -18.234375 C 35.246094 -19.011719 37.371094 -21.507812 38.964844 -23.183594 C 39.703125 -24 40.234375 -25.105469 40.273438 -26.003906 L 40.316406 -26.660156 L 39.660156 -26.003906 L 39.90625 -26.414062 C 40.273438 -27.066406 39.988281 -26.984375 39.375 -26.25 C 39.089844 -25.882812 38.558594 -25.351562 38.1875 -25.023438 C 37.863281 -24.738281 38.269531 -25.226562 39.089844 -26.167969 C 39.945312 -27.066406 40.519531 -27.804688 40.4375 -27.84375 Z M -2.902344 -9.117188 C -3.027344 -8.832031 -3.027344 -8.832031 -3.066406 -9.28125 C -3.066406 -9.609375 -3.027344 -9.691406 -2.902344 -9.566406 C -2.820312 -9.484375 -2.820312 -9.363281 -2.902344 -9.117188 Z M -0.980469 -14.761719 C -1.472656 -13.371094 -2.820312 -10.386719 -2.820312 -10.589844 C -2.820312 -10.835938 -2.085938 -12.714844 -1.839844 -13.125 C -1.71875 -13.328125 -1.511719 -13.777344 -1.390625 -14.1875 C -1.308594 -14.554688 -1.144531 -14.925781 -1.105469 -14.964844 C -1.023438 -15.046875 -0.980469 -15.210938 -0.980469 -15.332031 C -0.980469 -15.578125 -0.53125 -16.355469 -0.492188 -16.152344 C -0.492188 -16.070312 -0.734375 -15.457031 -0.980469 -14.761719 Z M 3.066406 -24.207031 C 1.675781 -21.140625 1.1875 -20.074219 0.285156 -17.910156 C -0.0820312 -17.050781 -0.410156 -16.3125 -0.410156 -16.3125 C -0.53125 -16.3125 -0.410156 -17.171875 -0.285156 -17.253906 C -0.203125 -17.296875 -0.121094 -17.539062 -0.0820312 -17.746094 C -0.0390625 -17.992188 0.203125 -18.5625 0.410156 -19.09375 C 0.652344 -19.625 0.859375 -20.117188 0.859375 -20.199219 C 0.859375 -20.320312 0.859375 -20.445312 0.941406 -20.445312 C 1.105469 -20.527344 2.042969 -22.527344 1.960938 -22.652344 C 1.878906 -22.855469 2.453125 -24.042969 3.351562 -25.515625 C 3.800781 -26.207031 4.171875 -26.78125 4.210938 -26.78125 C 4.253906 -26.78125 3.722656 -25.59375 3.066406 -24.207031 Z M 7.277344 -25.839844 C 7.113281 -25.59375 6.910156 -25.390625 6.867188 -25.390625 C 6.707031 -25.390625 6.789062 -25.472656 7.195312 -25.882812 L 7.5625 -26.289062 Z M 8.503906 -27.394531 C 8.421875 -27.273438 8.300781 -27.191406 8.257812 -27.191406 C 8.257812 -27.191406 8.300781 -27.273438 8.382812 -27.394531 C 8.464844 -27.515625 8.546875 -27.597656 8.585938 -27.597656 C 8.628906 -27.597656 8.585938 -27.515625 8.503906 -27.394531 Z M 8.503906 -27.394531 "/></g></g></g><g fill="#ffde59" fill-opacity="1"><g transform="translate(245.614374, 206.371198)"><g><path d="M 9.199219 -25.433594 C 11.816406 -25.144531 15.988281 -25.472656 19.914062 -26.332031 C 19.914062 -26.332031 19.914062 -26.371094 19.914062 -26.371094 C 19.914062 -26.371094 19.914062 -26.371094 19.953125 -26.371094 C 19.992188 -26.414062 20.035156 -26.453125 20.035156 -26.496094 C 20.074219 -26.496094 20.074219 -26.496094 20.074219 -26.496094 C 20.074219 -26.535156 20.074219 -26.535156 20.117188 -26.578125 C 20.117188 -26.617188 20.15625 -26.660156 20.15625 -26.699219 C 20.15625 -26.699219 20.15625 -26.699219 20.199219 -26.742188 C 20.199219 -26.78125 20.238281 -26.863281 20.238281 -26.945312 C 20.238281 -26.984375 20.238281 -27.191406 20.238281 -27.230469 C 20.238281 -27.273438 20.199219 -27.476562 20.238281 -27.394531 C 20.238281 -27.4375 20.199219 -27.515625 20.199219 -27.597656 C 20.15625 -27.597656 20.117188 -27.722656 20.117188 -27.761719 C 20.117188 -27.761719 20.074219 -27.761719 20.074219 -27.804688 C 20.074219 -27.804688 20.035156 -27.804688 20.035156 -27.84375 C 19.421875 -27.722656 19.011719 -27.640625 18.972656 -27.679688 C 18.929688 -27.722656 19.257812 -27.804688 19.667969 -27.886719 C 19.75 -27.886719 19.832031 -27.925781 19.953125 -27.925781 C 19.914062 -27.96875 19.914062 -27.96875 19.871094 -28.007812 C 19.871094 -28.007812 19.832031 -28.007812 19.832031 -28.007812 C 19.789062 -28.050781 19.75 -28.050781 19.75 -28.050781 C 19.75 -28.050781 19.707031 -28.089844 19.667969 -28.089844 C 19.585938 -28.128906 19.542969 -28.128906 19.460938 -28.128906 C 19.421875 -28.128906 19.21875 -28.171875 19.175781 -28.171875 C 19.054688 -28.171875 18.972656 -28.171875 18.847656 -28.171875 C 18.6875 -28.171875 18.523438 -28.171875 18.359375 -28.171875 C 16.355469 -27.761719 14.679688 -27.515625 12.878906 -27.394531 C 9.976562 -27.148438 7.523438 -27.3125 7.523438 -27.679688 C 7.5625 -27.925781 6.707031 -28.867188 6.296875 -29.070312 C 5.847656 -29.316406 5.355469 -29.355469 4.90625 -29.195312 C 4.621094 -29.070312 4.496094 -29.113281 4.171875 -29.316406 C 3.761719 -29.5625 3.066406 -29.683594 2.984375 -29.519531 C 2.945312 -29.480469 3.027344 -29.234375 3.1875 -29.03125 L 3.476562 -28.621094 L 2.699219 -27.925781 C 0.652344 -26.085938 -1.144531 -23.386719 -2.003906 -20.976562 C -2.617188 -19.21875 -2.453125 -16.152344 -1.675781 -15.167969 C -1.472656 -14.925781 -1.308594 -14.679688 -1.308594 -14.597656 C -1.347656 -14.1875 -0.328125 -13.207031 0.285156 -13.042969 C 0.980469 -12.839844 1.429688 -12.839844 1.800781 -13.003906 C 1.960938 -13.042969 2.535156 -13.246094 3.066406 -13.371094 C 4.171875 -13.65625 4.867188 -14.023438 5.929688 -14.964844 C 7.074219 -15.988281 8.136719 -17.417969 8.710938 -18.726562 C 9.117188 -19.625 9.199219 -19.953125 9.242188 -20.894531 C 9.363281 -22.285156 9.199219 -23.304688 8.75 -24.492188 C 8.546875 -25.023438 8.339844 -25.472656 8.339844 -25.515625 C 8.300781 -25.554688 8.710938 -25.515625 9.199219 -25.433594 Z M 17.949219 -27.476562 C 18.074219 -27.558594 18.929688 -27.722656 18.808594 -27.640625 C 18.765625 -27.597656 18.523438 -27.515625 18.277344 -27.476562 C 18.03125 -27.4375 17.867188 -27.4375 17.949219 -27.476562 Z M 5.722656 -18.113281 C 4.539062 -16.804688 3.679688 -16.152344 2.371094 -15.578125 C 1.390625 -15.167969 0.941406 -15.046875 0.367188 -15.046875 C -0.328125 -15.046875 -0.367188 -15.046875 -0.449219 -15.375 C -0.734375 -16.273438 -0.449219 -18.234375 0.164062 -19.75 C 0.652344 -20.976562 2.371094 -23.917969 2.945312 -24.449219 C 3.1875 -24.695312 3.351562 -24.941406 3.394531 -25.023438 C 3.394531 -25.144531 5.109375 -26.824219 5.273438 -26.863281 C 5.355469 -26.902344 5.355469 -26.824219 5.355469 -26.742188 C 5.234375 -26.496094 5.4375 -26.167969 5.683594 -26.167969 C 5.804688 -26.128906 5.929688 -26.085938 5.96875 -26.003906 C 6.011719 -25.964844 6.214844 -25.882812 6.460938 -25.882812 C 6.828125 -25.882812 6.910156 -25.839844 7.195312 -25.351562 C 8.300781 -23.429688 7.644531 -20.28125 5.722656 -18.113281 Z M 5.722656 -18.113281 "/></g></g></g><g fill="#ffde59" fill-opacity="1"><g transform="translate(262.909864, 206.371198)"><g><path d="M 24.859375 -23.511719 L 24.574219 -23.140625 L 24.246094 -22.734375 L 24.492188 -23.183594 L 24.695312 -23.675781 L 24.246094 -23.140625 C 24 -22.855469 23.835938 -22.570312 23.878906 -22.488281 C 23.917969 -22.40625 23.878906 -22.367188 23.835938 -22.367188 C 23.753906 -22.40625 23.0625 -21.671875 22.242188 -20.769531 C 20.445312 -18.765625 18.890625 -17.335938 17.949219 -16.765625 C 17.378906 -16.4375 17.050781 -16.355469 16.476562 -16.355469 C 15.699219 -16.394531 15.699219 -16.394531 15.414062 -16.925781 C 15.046875 -17.746094 14.761719 -19.175781 14.554688 -21.753906 C 14.433594 -23.0625 14.3125 -24.574219 14.1875 -25.144531 C 14.066406 -26.085938 13.984375 -26.289062 13.535156 -26.742188 C 13.246094 -27.066406 13.003906 -27.394531 13.003906 -27.515625 C 12.960938 -27.761719 11.855469 -28.335938 11.367188 -28.335938 C 11 -28.375 9.648438 -27.4375 9.078125 -26.699219 C 8.339844 -25.882812 7.15625 -24.613281 7.074219 -24.613281 C 6.949219 -24.613281 5.929688 -23.511719 4.007812 -21.140625 C 2.984375 -19.871094 2.085938 -18.847656 2.085938 -18.890625 C 2.042969 -18.972656 3.679688 -22.734375 4.578125 -24.613281 C 5.765625 -27.066406 6.992188 -29.316406 7.402344 -29.890625 C 7.808594 -30.421875 7.851562 -30.503906 7.726562 -30.910156 C 7.644531 -31.195312 7.441406 -31.484375 7.320312 -31.605469 C 7.15625 -31.730469 7.03125 -31.851562 7.074219 -31.933594 C 7.113281 -31.972656 7.074219 -32.097656 7.03125 -32.136719 C 6.949219 -32.21875 6.910156 -32.382812 6.910156 -32.585938 C 6.910156 -32.75 6.789062 -32.957031 6.625 -33.039062 C 6.5 -33.117188 6.335938 -33.28125 6.296875 -33.363281 C 1.1875 -25.675781 -1.960938 -16.394531 -2.496094 -14.800781 C -3.1875 -12.632812 -3.1875 -11.164062 -2.535156 -11.039062 C -2.371094 -11 -2.25 -10.835938 -2.207031 -10.589844 C -2.167969 -10.425781 -1.960938 -10.058594 -1.71875 -9.8125 C -1.472656 -9.566406 -1.144531 -9.402344 -1.023438 -9.402344 C -0.734375 -9.363281 -0.246094 -10.058594 0.285156 -11.324219 C 1.800781 -14.800781 8.628906 -23.347656 11.695312 -25.636719 C 11.9375 -25.839844 12.183594 -25.964844 12.183594 -25.964844 C 12.226562 -25.921875 12.390625 -24.574219 12.550781 -23.019531 C 12.839844 -20.035156 13.042969 -19.175781 13.617188 -17.703125 C 14.066406 -16.558594 15.128906 -14.925781 15.78125 -14.390625 C 16.601562 -13.65625 17.539062 -13.207031 17.828125 -13.410156 C 17.949219 -13.492188 18.152344 -13.574219 18.277344 -13.574219 C 18.441406 -13.574219 18.929688 -13.859375 19.378906 -14.269531 C 20.402344 -15.128906 22.609375 -17.5 22.609375 -17.785156 C 22.609375 -17.867188 22.734375 -18.074219 22.855469 -18.195312 C 22.980469 -18.359375 23.140625 -18.644531 23.183594 -18.808594 C 23.222656 -19.011719 23.59375 -19.585938 24 -20.15625 C 25.0625 -21.671875 25.269531 -22.285156 24.980469 -23.140625 Z M 24.859375 -23.511719 "/></g></g></g><g fill="#ffde59" fill-opacity="1"><g transform="translate(285.070972, 206.371198)"><g><path d="M 24.207031 -27.679688 C 24.042969 -27.558594 23.59375 -27.3125 23.59375 -27.273438 C 23.59375 -27.191406 23.46875 -27.109375 23.304688 -27.027344 C 23.140625 -26.945312 22.980469 -26.863281 22.9375 -26.824219 C 22.855469 -26.742188 22.039062 -26.167969 21.792969 -26.046875 C 21.589844 -25.921875 21.546875 -25.921875 21.464844 -26.046875 C 21.425781 -26.207031 21.015625 -26.003906 19.914062 -25.269531 C 19.503906 -24.941406 19.011719 -24.613281 18.847656 -24.53125 C 18.6875 -24.410156 18.316406 -24.125 17.949219 -23.878906 C 17.621094 -23.632812 17.132812 -23.265625 16.886719 -23.101562 C 16.640625 -22.9375 15.617188 -22.203125 14.554688 -21.464844 C 13.574219 -20.769531 12.714844 -20.15625 12.675781 -20.15625 C 12.632812 -20.15625 12.632812 -20.199219 12.632812 -20.238281 C 12.632812 -20.320312 12.921875 -20.605469 14.023438 -21.546875 C 14.3125 -21.835938 14.515625 -22.039062 14.515625 -22.078125 C 14.472656 -22.121094 14.351562 -22.078125 14.269531 -21.996094 C 13.777344 -21.546875 11.777344 -20.117188 11.488281 -19.992188 C 11.324219 -19.914062 11.203125 -19.832031 11.203125 -19.789062 C 11.203125 -19.707031 10.792969 -19.421875 10.304688 -19.09375 C 9.527344 -18.523438 9.078125 -18.195312 7.644531 -17.089844 C 7.195312 -16.722656 7.238281 -16.722656 5.96875 -17.378906 C 3.351562 -18.6875 2.863281 -19.011719 2.085938 -19.992188 C 1.636719 -20.527344 1.59375 -20.648438 1.636719 -21.015625 C 1.839844 -22.488281 4.375 -25.472656 7.402344 -27.761719 C 9.199219 -29.152344 11.734375 -30.664062 13.246094 -31.320312 C 14.1875 -31.730469 14.105469 -31.6875 15.210938 -31.933594 C 15.824219 -32.054688 16.109375 -32.179688 16.4375 -32.425781 C 16.804688 -32.75 16.84375 -32.792969 16.765625 -32.957031 C 16.683594 -33.039062 16.683594 -33.160156 16.804688 -33.324219 C 17.007812 -33.652344 16.96875 -34.34375 16.683594 -34.671875 C 16.519531 -34.835938 16.3125 -34.957031 16.230469 -34.957031 C 16.070312 -35 16.027344 -35.082031 16.070312 -35.203125 C 16.152344 -35.570312 15.824219 -35.816406 15.085938 -35.898438 C 14.515625 -35.980469 14.351562 -35.941406 14.066406 -35.777344 C 13.902344 -35.695312 13.492188 -35.53125 13.246094 -35.449219 C 12.511719 -35.164062 11.449219 -34.589844 10.015625 -33.773438 C 8.503906 -32.832031 6.707031 -31.648438 6.417969 -31.359375 C 6.378906 -31.320312 6.011719 -31.074219 5.640625 -30.746094 C 2.945312 -28.621094 0.652344 -25.757812 0.0390625 -23.796875 C -0.203125 -23.019531 -0.246094 -21.710938 -0.0390625 -21.140625 C 0.0390625 -20.894531 0.121094 -20.605469 0.0820312 -20.484375 C 0 -19.914062 0.980469 -17.828125 1.511719 -17.5 C 1.636719 -17.460938 1.71875 -17.335938 1.757812 -17.214844 C 1.800781 -16.925781 2.617188 -16.191406 3.679688 -15.496094 C 4.210938 -15.128906 4.703125 -14.800781 4.742188 -14.71875 C 4.824219 -14.679688 4.988281 -14.636719 5.109375 -14.679688 C 5.273438 -14.71875 5.355469 -14.679688 5.355469 -14.636719 C 5.355469 -14.515625 3.964844 -13.289062 3.800781 -13.207031 C 3.761719 -13.164062 3.761719 -13.328125 3.800781 -13.492188 C 3.964844 -13.902344 3.882812 -13.859375 2.902344 -12.921875 C 0.859375 -10.957031 0.734375 -10.835938 0.613281 -10.222656 C 0.53125 -9.609375 0.164062 -8.914062 -0.0820312 -8.832031 C -0.203125 -8.789062 -0.285156 -8.710938 -0.328125 -8.503906 C -0.367188 -8.339844 -0.410156 -8.257812 -0.492188 -8.257812 C -0.695312 -8.257812 -0.859375 -7.808594 -0.941406 -7.03125 C -1.023438 -6.460938 -0.980469 -6.253906 -0.816406 -5.929688 C -0.734375 -5.683594 -0.652344 -5.398438 -0.652344 -5.273438 C -0.695312 -5.070312 -0.410156 -4.253906 -0.246094 -3.925781 C -0.164062 -3.800781 0.164062 -3.597656 0.492188 -3.394531 C 1.105469 -3.066406 1.1875 -3.066406 2.207031 -3.066406 C 3.597656 -3.109375 4.539062 -3.351562 6.011719 -4.089844 C 7.320312 -4.742188 8.382812 -5.4375 9.160156 -6.214844 C 9.730469 -6.789062 10.34375 -7.484375 10.386719 -7.5625 C 10.386719 -7.605469 10.46875 -7.726562 10.550781 -7.808594 C 10.628906 -7.890625 10.710938 -8.015625 10.671875 -8.054688 C 10.628906 -8.097656 10.710938 -8.136719 10.835938 -8.136719 C 11.039062 -8.136719 11.121094 -8.21875 11.242188 -8.585938 C 11.488281 -9.117188 11.53125 -9.527344 11.613281 -10.671875 C 11.695312 -12.550781 11.082031 -14.023438 9.730469 -15.167969 C 9.566406 -15.332031 9.445312 -15.496094 9.445312 -15.578125 C 9.445312 -15.699219 10.34375 -16.4375 12.226562 -17.785156 C 12.757812 -18.195312 13.289062 -18.5625 13.328125 -18.605469 C 13.410156 -18.644531 13.859375 -18.972656 14.351562 -19.339844 C 14.882812 -19.707031 15.742188 -20.363281 16.355469 -20.769531 C 16.925781 -21.21875 17.582031 -21.671875 17.785156 -21.835938 C 18.316406 -22.160156 18.972656 -22.652344 19.300781 -22.898438 C 19.421875 -23.019531 19.75 -23.265625 19.992188 -23.429688 C 20.605469 -23.796875 22.039062 -24.820312 22.121094 -24.902344 C 22.203125 -24.941406 24.738281 -26.78125 24.980469 -26.945312 C 25.105469 -26.984375 25.226562 -27.066406 25.351562 -27.109375 C 26.046875 -27.597656 25.390625 -28.539062 24.207031 -27.679688 Z M 9.9375 -12.226562 L 9.8125 -11.855469 C 9.648438 -11.203125 8.832031 -10.015625 7.808594 -8.996094 C 7.195312 -8.339844 6.828125 -7.933594 6.789062 -7.6875 C 6.707031 -7.402344 6.625 -7.359375 6.214844 -7.277344 C 5.96875 -7.238281 5.683594 -7.113281 5.5625 -6.992188 C 5.234375 -6.707031 3.882812 -6.214844 2.902344 -6.050781 C 1.839844 -5.847656 1.144531 -5.847656 0.695312 -6.011719 C 0.410156 -6.132812 0.410156 -6.175781 0.449219 -6.5 C 0.53125 -6.992188 1.226562 -8.136719 1.839844 -8.75 C 2.945312 -9.894531 4.824219 -11.734375 5.886719 -12.714844 L 6.992188 -13.738281 L 7.359375 -13.617188 C 7.523438 -13.535156 8.175781 -13.164062 8.832031 -12.839844 Z M 9.9375 -12.226562 "/></g></g></g><g fill="#ffde59" fill-opacity="1"><g transform="translate(307.19119, 206.371198)"><g><path d="M 22.980469 -23.917969 C 23.222656 -24.207031 23.550781 -24.695312 23.714844 -25.0625 C 23.917969 -25.433594 24.328125 -26.046875 24.65625 -26.414062 C 25.269531 -27.148438 25.472656 -27.4375 25.105469 -27.148438 C 24.980469 -27.027344 24.941406 -27.027344 24.941406 -27.191406 C 24.941406 -27.3125 25.023438 -27.558594 25.144531 -27.679688 C 25.554688 -28.253906 25.144531 -28.089844 24.53125 -27.4375 C 23.960938 -26.824219 24 -26.863281 24.695312 -27.761719 C 25.1875 -28.335938 25.515625 -28.824219 25.472656 -28.867188 C 25.390625 -28.949219 24.777344 -28.253906 23.46875 -26.824219 C 23.140625 -26.453125 22.40625 -25.675781 21.835938 -25.105469 C 21.300781 -24.53125 20.605469 -23.835938 20.363281 -23.511719 C 19.625 -22.734375 18.359375 -21.589844 17.539062 -20.933594 C 17.132812 -20.605469 16.3125 -19.953125 15.742188 -19.421875 C 14.679688 -18.5625 14.3125 -18.316406 14.636719 -18.726562 C 14.800781 -18.929688 14.761719 -18.929688 14.554688 -18.765625 C 13.984375 -18.359375 13.453125 -17.910156 13.453125 -17.785156 C 13.453125 -17.621094 12.839844 -17.132812 12.59375 -17.132812 C 12.511719 -17.132812 11.980469 -16.84375 11.449219 -16.519531 C 8.832031 -14.84375 6.253906 -13.859375 3.640625 -13.617188 C 2.496094 -13.492188 1.265625 -13.859375 1.265625 -14.3125 C 1.265625 -14.351562 1.636719 -14.554688 2.042969 -14.761719 C 4.292969 -15.699219 5.480469 -16.394531 8.300781 -18.359375 C 9.324219 -19.054688 10.875 -20.6875 11.570312 -21.710938 C 12.265625 -22.734375 12.632812 -23.632812 12.714844 -24.574219 C 12.839844 -25.554688 12.472656 -26.289062 11.285156 -27.4375 C 10.386719 -28.335938 9.691406 -28.742188 8.710938 -28.988281 C 8.421875 -29.03125 7.890625 -29.152344 7.523438 -29.234375 C 7.15625 -29.316406 6.707031 -29.355469 6.5 -29.277344 C 6.132812 -29.234375 5.316406 -28.457031 4.414062 -27.355469 C 4.046875 -26.945312 3.640625 -26.453125 3.433594 -26.25 C 2.574219 -25.351562 0.777344 -22.488281 -0.0390625 -20.730469 C -0.941406 -18.726562 -1.226562 -16.886719 -0.859375 -15.539062 C -0.816406 -15.375 -0.859375 -15.25 -1.105469 -15.167969 C -1.472656 -14.964844 -1.472656 -14.882812 -1.0625 -14.800781 C -0.816406 -14.761719 -0.613281 -14.597656 -0.410156 -14.230469 C 0.164062 -13.246094 2.414062 -11.285156 2.738281 -11.488281 C 2.820312 -11.53125 2.984375 -11.488281 3.148438 -11.367188 C 3.882812 -10.957031 8.136719 -11.613281 9.242188 -12.347656 C 9.402344 -12.429688 10.097656 -12.796875 10.753906 -13.164062 C 12.429688 -14.023438 14.433594 -15.375 16.109375 -16.722656 C 16.886719 -17.378906 21.589844 -22.160156 22.160156 -22.9375 C 22.40625 -23.183594 22.773438 -23.632812 22.980469 -23.917969 Z M 2.496094 -19.460938 C 3.3125 -21.097656 4.578125 -22.980469 6.132812 -24.902344 C 7.851562 -27.027344 8.585938 -27.515625 9.566406 -27.273438 C 10.261719 -27.066406 10.425781 -26.902344 10.507812 -26.371094 C 10.589844 -25.800781 10.140625 -24.289062 9.648438 -23.59375 C 9.117188 -22.855469 7.238281 -20.933594 6.296875 -20.117188 C 5.804688 -19.75 5.355469 -19.378906 5.355469 -19.339844 C 5.109375 -19.09375 3.925781 -18.195312 2.820312 -17.5 C 1.390625 -16.519531 1.265625 -16.4375 1.265625 -16.476562 C 1.265625 -16.765625 1.921875 -18.277344 2.496094 -19.460938 Z M 19.175781 -20.445312 C 18.972656 -20.199219 18.5625 -19.75 18.195312 -19.421875 C 17.746094 -18.972656 17.828125 -19.09375 18.480469 -19.832031 C 19.421875 -20.894531 19.789062 -21.179688 19.175781 -20.445312 Z M 19.175781 -20.445312 "/></g></g></g><g fill="#ffde59" fill-opacity="1"><g transform="translate(328.493674, 206.371198)"><g><path d="M 24.859375 -23.511719 L 24.574219 -23.140625 L 24.246094 -22.734375 L 24.492188 -23.183594 L 24.695312 -23.675781 L 24.246094 -23.140625 C 24 -22.855469 23.835938 -22.570312 23.878906 -22.488281 C 23.917969 -22.40625 23.878906 -22.367188 23.835938 -22.367188 C 23.753906 -22.40625 23.0625 -21.671875 22.242188 -20.769531 C 20.445312 -18.765625 18.890625 -17.335938 17.949219 -16.765625 C 17.378906 -16.4375 17.050781 -16.355469 16.476562 -16.355469 C 15.699219 -16.394531 15.699219 -16.394531 15.414062 -16.925781 C 15.046875 -17.746094 14.761719 -19.175781 14.554688 -21.753906 C 14.433594 -23.0625 14.3125 -24.574219 14.1875 -25.144531 C 14.066406 -26.085938 13.984375 -26.289062 13.535156 -26.742188 C 13.246094 -27.066406 13.003906 -27.394531 13.003906 -27.515625 C 12.960938 -27.761719 11.855469 -28.335938 11.367188 -28.335938 C 11 -28.375 9.648438 -27.4375 9.078125 -26.699219 C 8.339844 -25.882812 7.15625 -24.613281 7.074219 -24.613281 C 6.949219 -24.613281 5.929688 -23.511719 4.007812 -21.140625 C 2.984375 -19.871094 2.085938 -18.847656 2.085938 -18.890625 C 2.042969 -18.972656 3.679688 -22.734375 4.578125 -24.613281 C 5.765625 -27.066406 6.992188 -29.316406 7.402344 -29.890625 C 7.808594 -30.421875 7.851562 -30.503906 7.726562 -30.910156 C 7.644531 -31.195312 7.441406 -31.484375 7.320312 -31.605469 C 7.15625 -31.730469 7.03125 -31.851562 7.074219 -31.933594 C 7.113281 -31.972656 7.074219 -32.097656 7.03125 -32.136719 C 6.949219 -32.21875 6.910156 -32.382812 6.910156 -32.585938 C 6.910156 -32.75 6.789062 -32.957031 6.625 -33.039062 C 6.5 -33.117188 6.335938 -33.28125 6.296875 -33.363281 C 1.1875 -25.675781 -1.960938 -16.394531 -2.496094 -14.800781 C -3.1875 -12.632812 -3.1875 -11.164062 -2.535156 -11.039062 C -2.371094 -11 -2.25 -10.835938 -2.207031 -10.589844 C -2.167969 -10.425781 -1.960938 -10.058594 -1.71875 -9.8125 C -1.472656 -9.566406 -1.144531 -9.402344 -1.023438 -9.402344 C -0.734375 -9.363281 -0.246094 -10.058594 0.285156 -11.324219 C 1.800781 -14.800781 8.628906 -23.347656 11.695312 -25.636719 C 11.9375 -25.839844 12.183594 -25.964844 12.183594 -25.964844 C 12.226562 -25.921875 12.390625 -24.574219 12.550781 -23.019531 C 12.839844 -20.035156 13.042969 -19.175781 13.617188 -17.703125 C 14.066406 -16.558594 15.128906 -14.925781 15.78125 -14.390625 C 16.601562 -13.65625 17.539062 -13.207031 17.828125 -13.410156 C 17.949219 -13.492188 18.152344 -13.574219 18.277344 -13.574219 C 18.441406 -13.574219 18.929688 -13.859375 19.378906 -14.269531 C 20.402344 -15.128906 22.609375 -17.5 22.609375 -17.785156 C 22.609375 -17.867188 22.734375 -18.074219 22.855469 -18.195312 C 22.980469 -18.359375 23.140625 -18.644531 23.183594 -18.808594 C 23.222656 -19.011719 23.59375 -19.585938 24 -20.15625 C 25.0625 -21.671875 25.269531 -22.285156 24.980469 -23.140625 Z M 24.859375 -23.511719 "/></g></g></g></svg>